<?xml version="1.0" standalone="no"?>
<!DOCTYPE svg PUBLIC "-//W3C//DTD SVG 1.1//EN" "http://www.w3.org/Graphics/SVG/1.1/DTD/svg11.dtd" >
<svg xmlns="http://www.w3.org/2000/svg">
  <metadata>Created by iconfont</metadata>
  <defs>
  <font id="iconfont" horiz-adv-x="1024">
    <font-face
      font-family="iconfont"
      font-weight="400"
      font-stretch="normal"
      units-per-em="1024"
      ascent="896"
      descent="-128"
    />
      <missing-glyph />
      
      <glyph glyph-name="shouye" unicode="&#58888;" d="M510.3 382.20000000000005m-174.5 0a174.5 174.5 0 1 1 349 0 174.5 174.5 0 1 1-349 0Z"  horiz-adv-x="1024" />
      
      <glyph glyph-name="support" unicode="&#59155;" d="M512 896q104 0 198.857143-40.571429t163.428571-109.142857 109.142857-163.428571 40.571429-198.857143-40.571429-198.857143-109.142857-163.428571-163.428571-109.142857-198.857143-40.571429-198.857143 40.571429-163.428571 109.142857-109.142857 163.428571T0 384t40.571429 198.857143 109.142857 163.428571T313.142857 855.428571 512 896z m0-73.142857q-108.571429 0-206.285714-51.428572l110.857143-110.857142q46.857143 16 95.428571 16t95.428571-16l110.857143 110.857142q-97.714286 51.428571-206.285714 51.428572zM124.571429 177.714286l110.857142 110.857143q-16 46.857143-16 95.428571t16 95.428571L124.571429 590.285714q-51.428571-97.714286-51.428572-206.285714t51.428572-206.285714z m387.428571-232.571429q108.571429 0 206.285714 51.428572l-110.857143 110.857142q-46.857143-16-95.428571-16t-95.428571 16l-110.857143-110.857142q97.714286-51.428571 206.285714-51.428572z m0 219.428572q90.857143 0 155.142857 64.285714T731.428571 384t-64.285714 155.142857T512 603.428571 356.857143 539.142857 292.571429 384t64.285714-155.142857T512 164.571429z m276.571429 124l110.857142-110.857143q51.428571 97.714286 51.428572 206.285714t-51.428572 206.285714l-110.857142-110.857143q16-46.857143 16-95.428571t-16-95.428571z"  horiz-adv-x="1024" />
      
      <glyph glyph-name="logout" unicode="&#58932;" d="M835.669333 341.333333h-473.173333A42.453333 42.453333 0 0 0 320 384a42.666667 42.666667 0 0 0 42.474667 42.666667h473.173333l-161.813333 161.834666a42.666667 42.666667 0 0 0 60.330666 60.330667l234.666667-234.666667a42.666667 42.666667 0 0 0 0-60.330666l-234.666667-234.666667a42.666667 42.666667 0 0 0-60.330666 60.330667L835.669333 341.333333zM554.666667 853.333333a42.666667 42.666667 0 1 0 0-85.333333H149.525333C137.578667 768 128 758.421333 128 746.517333v-725.034666C128 9.6 137.6 0 149.525333 0H554.666667a42.666667 42.666667 0 1 0 0-85.333333H149.525333A106.816 106.816 0 0 0 42.666667 21.482667V746.517333A106.773333 106.773333 0 0 0 149.525333 853.333333H554.666667z"  horiz-adv-x="1024" />
      
      <glyph glyph-name="IE-circle-fill" unicode="&#59527;" d="M693.6 611.6c-24 0-51.1-11.7-72.6-22 46.3-18 86-57.3 112.3-99.6 7.1 18.9 14.6 47.9 14.6 67.9 0 32-22.8 53.7-54.3 53.7zM512 832C264.6 832 64 631.4 64 384s200.6-448 448-448 448 200.6 448 448S759.4 832 512 832z m253.9-492.9H437.1c0-100.4 144.3-136 196.8-47.4h120.8c-32.6-91.7-119.7-146-216.8-146-35.1 0-70.3 0.1-101.7 15.6-87.4-44.5-180.3-56.6-180.3 42 0 45.8 23.2 107.1 44 145C335 412 381.3 473.2 435.6 521.5c-43.7-18.9-91.1-66.3-122-101.2 25.9 112.8 129.5 193.6 237.1 186.5 130 59.8 209.7 34.1 209.7-38.6 0-27.4-10.6-63.3-21.4-87.9 25.2-45.5 33.3-97.6 26.9-141.2zM540.5 496.9c-53.7 0-102-39.7-104-94.9h208c-2 55.1-50.6 94.9-104 94.9zM320.6 293.1c-73-152.4 11.5-172.2 100.3-123.3-46.6 27.5-82.6 72.2-100.3 123.3z"  horiz-adv-x="1024" />
      
      <glyph glyph-name="31pinglun" unicode="&#58887;" d="M622.56056 431.165206c0-27.928073 22.73684-50.64854 50.664913-50.64854 27.956725 0 50.693566 22.720468 50.693566 50.64854 0 27.928073-22.73684 50.66389-50.693566 50.66389C645.2974 481.828073 622.56056 459.092255 622.56056 431.165206M931.254178 684.540937c0 40.637536-33.05893 73.698512-73.728188 73.698512L166.471964 758.23945c-40.637536 0-73.727165-33.059953-73.727165-73.698512l0-506.796488c0-40.637536 33.088606-73.696466 73.727165-73.696466l251.16846 0 94.343715-94.28641 94.315062 94.28641 251.226788 0c40.669258 0 73.728188 33.05893 73.728188 73.696466l0 82.560344-0.089028 1.282203L931.254178 684.540937zM875.96699 200.779072c0-22.88522-18.558681-41.444924-41.443901-41.444924L579.446623 159.334147l-67.462484-67.490114-67.430762 67.490114L189.506587 159.334147c-22.88522 0-41.4746 18.559705-41.4746 41.444924L148.031986 661.506315c0 22.88522 18.58938 41.488927 41.4746 41.488927l645.01548 0c22.88522 0 41.443901-18.603707 41.443901-41.488927l0-396.579247 0-36.161594L875.965967 200.779072zM461.321272 431.165206c0-27.928073 22.735817-50.64854 50.662867-50.64854 27.929096 0 50.66389 22.720468 50.66389 50.64854 0 27.928073-22.734794 50.66389-50.66389 50.66389C484.057089 481.828073 461.321272 459.092255 461.321272 431.165206M300.083008 431.165206c0-27.928073 22.735817-50.64854 50.66389-50.64854 27.927049 0 50.662867 22.720468 50.662867 50.64854 0 27.928073-22.735817 50.66389-50.662867 50.66389C322.817802 481.828073 300.083008 459.092255 300.083008 431.165206"  horiz-adv-x="1024" />
      
      <glyph glyph-name="iccompany" unicode="&#58909;" d="M95.328 819.104l37.152 0 0-833.184-37.152 0 0 833.184zM502.688 819.104l37.152 0 0-833.184-37.152 0 0 833.184zM21.344-14.016l981.344 0 0-37.152-981.344 0 0 37.152zM95.392 819.168l444.448 0 0-37.152-444.448 0 0 37.152zM947.104-14.08l-37.12 0 0 583.648 37.12-9.696 0-573.984zM909.984 569.568l0-38.272-370.176 96.576 0 38.208 370.176-96.512zM187.968 670.976l20 0 0-111.072-20 0 0 111.072zM279.072 670.976l20 0 0-111.072-20 0 0 111.072zM187.968 670.976l111.104 0 0-20-111.104 0 0 20zM187.968 579.904l111.104 0 0-20-111.104 0 0 20zM336.096 670.976l20 0 0-111.072-20 0 0 111.072zM427.2 670.976l20 0 0-111.072-20 0 0 111.072zM336.096 670.976l111.072 0 0-20-111.072 0 0 20zM336.096 579.904l111.072 0 0-20-111.072 0 0 20zM187.968 522.848l20 0 0-111.104-20 0 0 111.104zM279.072 522.848l20 0 0-111.104-20 0 0 111.104zM187.968 522.848l111.104 0 0-20-111.104 0 0 20zM187.968 431.744l111.104 0 0-20-111.104 0 0 20zM336.096 522.848l20 0 0-111.104-20 0 0 111.104zM427.2 522.848l20 0 0-111.104-20 0 0 111.104zM336.096 522.848l111.072 0 0-20-111.072 0 0 20zM336.096 431.744l111.072 0 0-20-111.072 0 0 20zM187.968 374.752l20 0 0-111.104-20 0 0 111.104zM279.072 374.752l20 0 0-111.104-20 0 0 111.104zM187.968 374.752l111.104 0 0-20-111.104 0 0 20zM187.968 283.648l111.104 0 0-20-111.104 0 0 20zM336.096 374.752l20 0 0-111.104-20 0 0 111.104zM427.2 374.752l20 0 0-111.104-20 0 0 111.104zM336.096 374.752l111.072 0 0-20-111.072 0 0 20zM336.096 283.648l111.072 0 0-20-111.072 0 0 20zM187.968 226.592l20 0 0-111.072-20 0 0 111.072zM279.072 226.592l20 0 0-111.072-20 0 0 111.072zM187.968 226.592l111.104 0 0-20-111.104 0 0 20zM187.968 135.552l111.104 0 0-20-111.104 0 0 20zM336.096 226.592l20 0 0-111.072-20 0 0 111.072zM427.2 226.592l20 0 0-111.072-20 0 0 111.072zM336.096 226.592l111.072 0 0-20-111.072 0 0 20zM336.096 135.552l111.072 0 0-20-111.072 0 0 20zM595.296 522.848l20 0 0-111.104-20 0 0 111.104zM686.432 522.848l20 0 0-111.104-20 0 0 111.104zM595.296 522.848l111.072 0 0-20-111.072 0 0 20zM595.296 431.744l111.072 0 0-20-111.072 0 0 20zM763.424 411.744l-19.968 0 0 111.104 20-6.688-0.032-104.416zM854.592 411.744l-20.032 0 0 80.736 20-6.688 0-74.048zM834.56 492.48l0-19.488-71.136 23.68 0 19.52 71.136-23.712zM743.456 431.744l111.072 0 0-20-111.072 0 0 20zM595.296 374.688l20 0 0-111.072-20 0 0 111.072zM686.432 374.688l20 0 0-111.072-20 0 0 111.072zM595.296 374.688l111.072 0 0-20-111.072 0 0 20zM595.296 283.616l111.072 0 0-20-111.072 0 0 20zM743.456 374.688l20 0 0-111.072-20 0 0 111.072zM834.56 374.688l20 0 0-111.072-20 0 0 111.072zM743.456 374.688l111.072 0 0-20-111.072 0 0 20zM743.456 283.616l111.072 0 0-20-111.072 0 0 20zM595.296 226.592l20 0 0-111.072-20 0 0 111.072zM686.432 226.592l20 0 0-111.072-20 0 0 111.072zM595.296 226.592l111.072 0 0-20-111.072 0 0 20zM595.296 135.552l111.072 0 0-20-111.072 0 0 20zM743.456 226.592l20 0 0-111.072-20 0 0 111.072zM834.56 226.592l20 0 0-111.072-20 0 0 111.072zM743.456 226.592l111.072 0 0-20-111.072 0 0 20zM743.456 135.552l111.072 0 0-20-111.072 0 0 20z"  horiz-adv-x="1024" />
      
      <glyph glyph-name="ic_member" unicode="&#59063;" d="M496.896 384c35.2 39.296 86.272 64 143.104 64h192a192 192 0 0 0 192-192v-128h-256v-192H0v192a256 256 0 0 0 256 256h240.896z m263.04-192H960v64a128 128 0 0 1-128 128h-192c-18.752 0-36.544-4.032-52.608-11.264A256.512 256.512 0 0 0 759.936 192zM384 448a192 192 0 1 0 0 384 192 192 0 0 0 0-384z m0 64a128 128 0 1 1 0 256 128 128 0 0 1 0-256z m352 0a128 128 0 1 0 0 256 128 128 0 0 0 0-256z m0 64a64 64 0 1 1 0 128 64 64 0 0 1 0-128zM256 320a192 192 0 0 1-192-192v-128h640v128a192 192 0 0 1-192 192H256z"  horiz-adv-x="1024" />
      
      <glyph glyph-name="similarproduct" unicode="&#59126;" d="M302.327525 391.2192l-146.944 88.064c-11.776 7.168-27.136 3.328-34.048-8.448-7.168-11.776-3.328-27.136 8.448-34.304l146.944-88.064c11.776-7.168 27.136-3.328 34.048 8.704C317.943525 368.9728 314.103525 384.3328 302.327525 391.2192zM458.999525-124.8768c5.888-1.792 12.544-1.28 18.688 2.304C472.055525-125.6448 465.399525-126.6688 458.999525-124.8768zM302.327525 391.2192l-146.944 88.064c-11.776 7.168-27.136 3.328-34.048-8.448-7.168-11.776-3.328-27.136 8.448-34.304l146.944-88.064c11.776-7.168 27.136-3.328 34.048 8.704C317.943525 368.9728 314.103525 384.3328 302.327525 391.2192zM302.327525 391.2192l-146.944 88.064c-11.776 7.168-27.136 3.328-34.048-8.448-7.168-11.776-3.328-27.136 8.448-34.304l146.944-88.064c11.776-7.168 27.136-3.328 34.048 8.704C317.943525 368.9728 314.103525 384.3328 302.327525 391.2192zM302.327525 391.2192l-146.944 88.064c-11.776 7.168-27.136 3.328-34.048-8.448-7.168-11.776-3.328-27.136 8.448-34.304l146.944-88.064c11.776-7.168 27.136-3.328 34.048 8.704C317.943525 368.9728 314.103525 384.3328 302.327525 391.2192zM302.327525 391.2192l-146.944 88.064c-11.776 7.168-27.136 3.328-34.048-8.448-7.168-11.776-3.328-27.136 8.448-34.304l146.944-88.064c11.776-7.168 27.136-3.328 34.048 8.704C317.943525 368.9728 314.103525 384.3328 302.327525 391.2192zM302.327525 391.2192l-146.944 88.064c-11.776 7.168-27.136 3.328-34.048-8.448-7.168-11.776-3.328-27.136 8.448-34.304l146.944-88.064c11.776-7.168 27.136-3.328 34.048 8.704C317.943525 368.9728 314.103525 384.3328 302.327525 391.2192zM477.687525-122.5472c-6.144-3.584-12.8-4.096-18.688-2.304C465.399525-126.6688 472.055525-125.6448 477.687525-122.5472zM490.641125-58.112 490.641125 384.256l389.632 221.184 39.8848 24.1664c7.9872 5.1968 9.4976 11.8016 10.5472 16.5376 1.024 9.728-3.584 19.968-13.568 25.088l-440.32 220.16c-7.168 3.584-15.36 3.584-22.528 0l-440.32-220.16C-2.414875 660.48 0.145125 636.672 0.145125 634.112l0-469.76c0-8.704 4.608-16.896 12.032-21.504 0 0 430.848-260.352 438.272-263.68 15.104-7.424 24.576-5.376 31.744-1.792l143.36 82.944c12.288 7.168 16.384 22.784 9.216 35.072-6.912 12.288-22.784 16.384-34.816 9.472l-99.072-57.6 0 0.256L490.641125-58.112M440.465125 384.256l0-441.088L50.065125 178.432l0 427.52L440.465125 384.256zM465.553125 427.776 78.225125 647.424l387.328 193.536 387.328-193.536L465.553125 427.776zM812.945125-21.376l201.984 121.344c5.632 3.584 9.216 9.728 9.216 16.64l0 222.464c0 7.8336-5.888 13.312-12.288 16.384l-5.12 2.56c-0.512 0.256-1.28 0.256-1.792 0.256l1.536 0-196.352 98.048c-5.376 2.56-11.776 2.56-17.152 0l-196.096-98.048c-14.336-5.504-17.92-17.792-17.92-24.704l0-216.96c0-6.912 3.584-13.056 9.472-16.64 0 0 200.1664-120.0896 201.1904-120.3456C789.623525-20.4032 801.553125-29.2352 812.945125-21.376zM782.481125 27.776l-165.12 99.584 0 178.944 165.12-93.44L782.481125 27.776zM801.681125 245.888l-161.024 91.392 161.024 80.384 160.768-80.384L801.681125 245.888zM985.745125 127.36l-164.864-99.328 0 184.832 164.864 93.44L985.745125 127.36z"  horiz-adv-x="1025" />
      
      <glyph glyph-name="settings2shezhi" unicode="&#58953;" d="M392.919517-128 338.038057-128c-12.184503 0-22.833145 4.607585-31.945925 13.720365C296.979352-105.166855 292.371767-94.518213 292.371767-82.33371L292.371767-38.920017C261.961703-31.343099 237.592697-20.694457 219.264746-6.974092L194.179004-34.312432C185.066224-43.527603 174.008019-48.032797 161.10678-48.032797c-12.901239 0-23.242708 4.607585-30.819626 13.720365L93.631253 2.138688c-21.297283 21.297283-21.297283 42.594566 0 63.994241l27.44073 25.085742C105.815757 115.587677 95.167115 139.956684 89.126059 164.325691L45.712366 164.325691c-12.184503 0-22.833145 4.607585-31.945925 13.720365C4.653661 187.158836 0.046076 197.807477 0.046076 209.991981L0.046076 264.873441C0.046076 277.057945 4.653661 287.706586 13.766441 296.819366c9.11278 9.11278 19.761421 13.720365 31.945925 13.720365L89.126059 310.539731C96.702977 340.949795 107.351618 365.318801 121.071984 383.544361L93.631253 408.732494C84.518473 417.845274 80.013279 428.493916 80.013279 440.678419c0 12.184503 4.607585 22.833145 13.720365 31.945925l36.55351 36.55351c7.576918 9.11278 17.918387 13.720365 30.819626 13.720365 12.901239 0 23.959444-4.607585 33.072223-13.720365l25.085742-27.44073C237.592697 495.55988 261.961703 506.10613 292.371767 513.785439L292.371767 557.199132c0 12.184503 4.607585 22.833145 13.720365 31.945925 9.11278 9.11278 19.761421 13.720365 31.945925 13.720365l54.77907 0c12.184503 0 22.833145-4.607585 31.945925-13.720365 9.11278-9.11278 13.720365-19.761421 13.720365-31.945925l0-43.413693C468.99587 506.10613 493.364877 495.55988 511.590437 481.839514l25.085742 27.44073c9.11278 9.11278 20.170985 13.720365 33.072223 13.720365 12.901239 0 23.242708-4.607585 30.819626-13.720365l36.55351-36.55351c21.297283-21.399674 21.297283-42.594566 0-63.994241L609.88559 383.544361C625.039426 359.277745 635.688068 334.806347 641.831515 310.539731l43.413693 0c12.184503 0 22.833145-4.607585 31.945925-13.720365C726.303913 287.706586 730.911498 277.057945 730.911498 264.873441l0-54.77907c0-12.184503-4.607585-22.833145-13.720365-31.945925C708.078353 168.933276 697.429711 164.325691 685.245208 164.325691L641.831515 164.325691C634.254597 133.813237 623.503565 109.546621 609.88559 91.21867l27.44073-25.085742c9.11278-9.11278 13.720365-19.761421 13.720365-31.945925 0-12.184503-4.607585-22.833145-13.720365-31.945925L600.67042-34.312432C593.093502-43.527603 582.854423-48.032797 569.850793-48.032797c-12.901239 0-23.959444 4.607585-33.072223 13.720365L511.590437-6.974092C487.323821-22.127928 462.954814-32.878961 438.585807-38.920017l0-43.413693c0-12.184503-4.607585-22.833145-13.720365-31.945925C415.752662-123.392415 405.00163-128 392.919517-128zM217.012149 34.187003c1.535862 0 5.324321-1.535862 11.365377-4.607585 25.904869-18.22556 54.77907-30.512454 86.827386-36.55351 9.11278 0 13.720365-6.041056 13.720365-18.22556l0-57.134058c0-6.041056 3.071724-9.11278 9.11278-9.11278l54.77907 0c6.041056 0 9.11278 3.071724 9.11278 9.11278L401.929906-25.199652c0 12.184503 4.607585 18.22556 13.720365 18.22556 31.945925 6.041056 60.922517 18.22556 86.827386 36.55351 9.11278 6.041056 17.508824 5.324321 25.085742-2.252597L564.2193-9.22669l4.607585-2.252597c3.071724 0 5.324321 0.819126 6.860183 2.252597l36.55351 36.55351C613.674049 28.760292 614.390785 31.11528 614.390785 34.187003c0 1.433471-0.716735 3.071724-2.252597 4.607585L575.584677 77.600696C569.44123 82.10589 568.724495 89.682809 573.33208 100.433841c18.22556 25.904869 30.410063 54.77907 36.55351 86.827386 0 9.11278 6.041056 13.720365 18.22556 13.720365l57.134058 0c6.041056 0 9.11278 3.071724 9.11278 9.11278L694.357988 264.873441c0 6.041056-3.071724 9.11278-9.11278 9.11278L628.11115 273.986221c-12.184503 0-18.22556 4.607585-18.22556 13.720365C602.206281 322.724235 590.021778 351.598436 573.33208 374.431581 568.724495 385.080223 569.44123 393.476267 575.584677 399.619714L612.138188 436.173224c3.071724 3.071724 3.071724 6.860183 0 11.467768L575.584677 484.092112c-3.071724 3.071724-6.860183 3.071724-11.365377 0L527.66579 447.538602C521.522343 441.497545 513.126299 440.678419 502.477657 445.286004 476.572788 463.511564 447.698587 475.696067 415.752662 481.839514 406.537492 484.808847 402.032297 490.952294 402.032297 500.065074L402.032297 557.199132c0 6.041056-3.071724 9.11278-9.11278 9.11278L338.038057 566.311912c-6.041056 0-9.11278-3.071724-9.11278-9.11278l0-57.134058c0-9.11278-4.607585-15.256227-13.720365-18.22556C283.258987 475.696067 254.282395 463.511564 228.479917 445.286004 217.728884 440.678419 209.435231 441.497545 203.291784 447.538602L166.738274 484.092112 162.233079 486.344709c-3.071724 0-5.324321-0.819126-6.860183-2.252597L118.819386 447.538602C117.283524 446.00274 116.566789 443.750142 116.566789 440.678419c0-1.535862 0.716735-3.071724 2.252597-4.607585l36.55351-36.55351c6.041056-6.041056 6.860183-14.539491 2.252597-25.085742C139.399934 348.526713 127.215431 319.652511 121.071984 287.706586c0-9.11278-6.041056-13.720365-18.22556-13.720365L45.712366 273.986221c-6.041056 0-9.11278-3.071724-9.11278-9.11278l0-54.77907c0-6.041056 3.071724-9.11278 9.11278-9.11278l57.134058 0c12.184503 0 18.22556-4.607585 18.22556-13.720365 7.576918-35.120039 19.761421-63.994241 36.55351-86.827386 4.607585-10.648642 3.788459-19.044686-2.252597-25.085742L118.819386 38.692198c-3.071724-3.071724-3.071724-6.860183 0-11.467768L155.372896-9.22669c1.535862-1.535862 3.788459-2.252597 6.860183-2.252597 1.535862 0 3.071724 0.819126 4.607585 2.252597l38.806107 36.55351C208.616105 31.832015 212.404564 34.187003 217.012149 34.187003zM468.279135 134.632363C439.302543 105.758162 405.00163 91.21867 365.478787 91.21867c-39.625234 0-73.823756 14.437101-102.800348 43.413693C233.804238 163.506564 219.264746 197.807477 219.264746 237.432711c0 39.625234 14.437101 73.823756 43.413693 102.800348 28.976592 28.874201 63.175114 43.413693 102.800348 43.413693 39.625234 0 73.823756-14.539491 102.800348-43.413693C497.153336 311.256467 511.590437 277.057945 511.590437 237.432711 511.590437 197.807477 497.153336 163.506564 468.279135 134.632363zM443.091002 315.044926C421.793719 336.4446 395.88885 347.093242 365.478787 347.093242c-30.410063 0-56.314932-10.648642-77.612215-31.945925C266.466898 293.747643 255.818256 267.842774 255.818256 237.432711c0-30.512454 10.648642-56.314932 31.945925-77.612215 21.297283-21.399674 47.202152-31.945925 77.612215-31.945925 30.410063 0 56.314932 10.648642 77.612215 31.945925C464.388285 181.117779 475.139317 206.920257 475.139317 237.432711 475.139317 267.842774 464.388285 293.747643 443.091002 315.044926zM721.798718 420.097871c-6.041056 0-10.648642 0.716735-13.720365 2.252597L676.030037 436.173224c-22.833145 9.11278-29.693328 25.085742-20.580548 47.918887l9.11278 22.833145C649.408433 519.10976 638.759792 528.939275 632.718735 536.618584L614.390785 529.758402C593.093502 522.079093 577.837275 528.22254 568.724495 547.983961L555.00413 580.032277C547.427212 601.32956 553.468268 617.302523 573.33208 627.951164L593.810237 634.811347c-1.535862 15.153836-1.535862 30.410063 0 45.66629L570.977092 689.590417C561.864312 691.126279 555.00413 697.269726 550.498935 707.918367c-1.535862 9.11278-1.535862 18.22556 0 27.44073L564.2193 769.55762c9.11278 21.297283 25.085742 27.44073 47.918887 18.22556l20.580548-9.11278 31.945925 31.945925L657.804478 828.944275c-9.11278 22.833145-3.071724 37.986981 18.22556 45.66629l31.945925 13.720365C729.375636 895.907848 745.348599 889.764401 755.99724 870.105371L762.857423 849.524823c10.648642 1.433471 25.904869 2.252597 45.66629 2.252597L817.636493 872.357968C825.315802 893.655251 840.469638 900.515434 863.405174 892.938516l31.945925-13.720365c22.833145-9.11278 29.693328-25.085742 20.580548-47.918887L906.716476 810.718715c12.184503-9.11278 22.833145-19.761421 31.945925-31.945925l18.22556 6.860183c21.297283 7.576918 36.55351 1.433471 45.66629-18.22556l13.720365-31.945925C1023.953924 713.959424 1017.912868 697.986461 998.151446 687.33782L977.570899 680.477637c3.071724-13.720365 3.071724-28.976592 0-45.66629L1000.404044 625.698567c9.11278-1.535862 15.972962-7.679309 20.580548-18.22556 1.535862-9.11278 1.535862-18.22556 0-27.44073L1007.264226 547.983961c-9.11278-22.833145-25.085742-29.693328-47.918887-20.580548L936.409803 536.618584C924.2253 521.362357 914.395784 510.713716 906.716476 504.672659L913.576658 486.344709c4.607585-9.11278 4.607585-18.22556 0-27.44073C909.071464 449.791199 902.928016 443.750142 895.351098 440.678419L863.405174 426.958054C842.0055 419.278745 826.032537 425.422192 815.383895 445.286004L808.523713 465.866552c-15.256227-1.535862-30.410063-1.535862-45.66629 0L753.744643 442.931016C749.137058 427.77718 738.488416 420.097871 721.798718 420.097871zM639.578918 577.677289c6.041056 0 11.467768-2.252597 15.972962-6.860183C666.200522 554.025018 679.920887 539.690308 696.610585 527.505804 705.723365 522.898219 708.078353 515.21891 703.470768 504.672659L689.750402 470.371747 721.798718 456.651381l13.720365 36.55351c3.071724 9.11278 9.931906 12.184503 20.580548 9.11278 21.297283-3.071724 41.161096-3.071724 59.386655 0 10.648642 3.071724 17.508824 0 20.580548-9.11278l13.720365-31.945925L881.630733 474.979332l-15.972962 29.693328c-3.071724 10.648642-0.716735 18.22556 6.860183 22.833145 16.792089 10.648642 31.229189 24.266616 43.413693 41.161096C920.436841 577.677289 928.013759 580.032277 938.764791 575.424692l36.55351-13.720365 11.467768 31.945925L952.382766 607.370617C941.734124 610.44234 937.945665 617.302523 941.017388 627.951164c3.071724 21.297283 3.071724 41.161096 0 59.386655-3.071724 10.648642 0 17.508824 9.11278 20.580548l31.945925 13.720365L968.458119 753.584657l-29.693328-13.720365C929.549621 733.823236 921.972702 735.359098 915.931646 744.471878 905.283005 761.161575 891.562639 775.598676 874.770551 787.88557 865.657771 792.390765 863.405174 800.070074 867.910368 810.718715L881.630733 847.272225 849.684808 858.637603 835.964443 824.43908C832.89272 813.688048 826.032537 809.899589 815.383895 812.971313c-13.720365 3.071724-33.481787 3.071724-59.386655 0C745.348599 809.899589 738.488416 813.688048 735.416692 824.43908L721.798718 856.385005 689.750402 842.66464l15.972962-31.945925C708.795088 803.039406 706.542491 795.462488 698.965573 787.88557 682.173484 777.236929 667.736384 763.516564 655.55188 746.724475 649.408433 737.611695 641.831515 735.359098 632.718735 739.864292L596.165225 753.584657 584.697457 721.638733l34.300913-13.720365c10.648642-3.071724 14.437101-9.931906 11.365377-20.580548-3.071724-21.399674-3.071724-41.161096 0-59.386655 3.071724-10.648642 0-17.508824-9.11278-20.580548L589.305043 593.752642l13.720365-29.693328 29.693328 13.720365L639.578918 577.77968zM849.684808 593.752642C831.356858 575.424692 810.059575 566.311912 785.690568 566.311912S740.024278 575.424692 721.798718 593.752642C703.470768 611.978202 694.357988 633.275485 694.357988 657.644492c0 24.266616 9.11278 45.66629 27.44073 63.994241 18.22556 18.22556 39.625234 27.44073 63.994241 27.44073s45.66629-9.11278 63.994241-27.44073c18.22556-18.22556 27.44073-39.625234 27.44073-63.994241C877.023148 633.275485 867.910368 611.978202 849.684808 593.752642zM824.496675 696.450599C813.848034 707.099241 800.946795 712.423562 785.690568 712.423562c-15.256227 0-28.157466-5.324321-38.806107-15.972962C736.235819 685.801958 730.911498 672.798328 730.911498 657.644492c0-15.256227 5.324321-28.259857 15.972962-38.806107 10.648642-10.648642 23.549881-15.972962 38.806107-15.972962 15.256227 0 28.157466 5.324321 38.806107 15.972962 10.648642 10.648642 15.972962 23.652271 15.972962 38.806107C840.469638 672.798328 835.145317 685.801958 824.496675 696.450599z"  horiz-adv-x="1024" />
      
      <glyph glyph-name="builder-copy" unicode="&#59108;" d="M923.36 812.64H100.64C62.72 812.64 32 781.92 32 744v-548.64c0-37.92 30.72-68.64 68.64-68.64h342.72V24H272c-18.72 0-34.08-15.36-34.08-34.08v-34.08h548.64v34.08c0 18.72-15.36 34.08-34.08 34.08h-171.36v102.72h342.72c37.92 0 68.64 30.72 68.64 68.64V744c-0.48 37.92-31.2 68.64-69.12 68.64zM477.92 195.36c0 18.72 15.36 34.08 34.08 34.08s34.08-15.36 34.08-34.08c0-18.72-15.36-34.56-34.08-34.56s-34.08 15.84-34.08 34.56zM100.64 264V744h822.72v-480H100.64zM362.72 420.48c-2.88 0-5.76 0.48-8.16 2.4L251.36 480.96c-5.28 2.88-8.64 8.64-8.64 14.4s3.36 11.52 8.64 14.4l102.72 58.56c8.16 4.8 18.24 1.92 23.04-6.24 4.8-8.16 1.92-18.24-6.24-23.04l-77.28-44.16 77.28-44.16c8.16-4.8 11.04-14.88 6.24-23.04-2.88-4.32-8.64-7.2-14.4-7.2zM661.28 420.48c-5.76 0-11.52 2.88-14.4 8.64-4.8 8.16-1.92 18.24 6.24 23.04l77.28 44.16-77.28 44.16c-8.16 4.8-11.04 14.88-6.24 23.04 4.8 8.16 14.88 11.04 23.04 6.24l102.72-58.56c5.28-2.88 8.64-8.64 8.64-14.4s-3.36-11.52-8.64-14.4L669.92 422.4c-2.88-1.44-5.76-1.92-8.64-1.92zM480.32 388.8c-1.92 0-3.84 0.48-5.76 0.96-8.64 2.88-13.44 12.48-10.08 21.6l63.36 180.48c2.88 8.64 12.48 13.44 21.6 10.08 8.64-2.88 13.44-12.48 10.08-21.6L496.16 399.84c-2.4-6.72-8.64-11.04-15.84-11.04z"  horiz-adv-x="1024" />
      
      <glyph glyph-name="yumingfuwu" unicode="&#59055;" d="M380.541 426.679l-45.839-159.116h-51.587l-23.463 93.23c-1.554 6.217-2.435 13-2.642 20.357h-0.932c-0.726-8.08-1.763-14.662-3.108-19.736l-25.172-93.852H176.83l-44.907 159.116h50.034l21.91-103.8c1.033-4.871 1.811-10.773 2.331-17.713h0.932c0.517 7.248 1.449 13.363 2.796 18.336l27.349 103.177h46.771l24.551-103.8c0.621-2.592 1.344-8.598 2.175-18.025h1.087a178.766 178.766 0 0 0 2.486 18.025l20.667 103.8h45.529zM634.285 426.679l-45.839-159.116h-51.589l-23.462 93.229c-1.555 6.219-2.436 13.002-2.642 20.359h-0.933c-0.725-8.08-1.762-14.662-3.107-19.736l-25.173-93.852h-50.966l-44.906 159.116h50.035l21.909-103.8c1.034-4.871 1.811-10.773 2.331-17.713h0.933c0.516 7.248 1.45 13.363 2.796 18.336l27.349 103.177h46.771l24.549-103.8c0.623-2.592 1.347-8.598 2.177-18.025h1.088a178.484 178.484 0 0 0 2.487 18.025l20.665 103.8h45.527zM888.028 426.679L842.19 267.564h-51.588l-23.464 93.227c-1.554 6.219-2.434 13.002-2.642 20.359h-0.933c-0.724-8.08-1.762-14.662-3.107-19.736l-25.173-93.852h-50.966L639.41 426.679h50.037l21.907-103.8c1.036-4.871 1.813-10.773 2.332-17.713h0.933c0.517 7.248 1.449 13.363 2.795 18.336l27.351 103.177h46.77l24.551-103.8c0.623-2.592 1.347-8.598 2.179-18.025h1.086a178.757 178.757 0 0 0 2.484 18.025l20.665 103.8h45.528zM278.8 491.336a5 5 0 0 0-4.734 6.612c29.035 85.348 109.15 142.69 199.356 142.69a5 5 0 0 0 0-10c-85.922 0-162.233-54.619-189.889-135.911a5.002 5.002 0 0 0-4.733-3.391zM507.462 0.93c-143.744 0-273.605 85.218-330.837 217.103-4.397 10.133 0.253 21.912 10.386 26.309 10.131 4.396 21.911-0.252 26.309-10.385 50.884-117.26 166.341-193.027 294.142-193.027 127.317 0 242.602 75.369 293.7 192.013 4.432 10.116 16.226 14.729 26.345 10.294 10.117-4.433 14.727-16.228 10.294-26.345C780.328 85.7 650.662 0.93 507.462 0.93zM186 453.9c-2.192 0-4.42 0.363-6.606 1.128-10.426 3.648-15.92 15.057-12.272 25.483 24.459 69.902 69.272 129.861 129.592 173.395 61.631 44.48 134.506 67.991 210.748 67.991 75.945 0 148.589-23.344 210.077-67.508 60.165-43.214 105.016-102.791 129.702-172.29 3.697-10.409-1.744-21.844-12.152-25.541-10.409-3.695-21.844 1.743-25.541 12.152-45.293 127.513-166.691 213.186-302.086 213.186-136.071 0-257.67-86.24-302.584-214.597C201.994 459.06 194.263 453.9 186 453.9z"  horiz-adv-x="1024" />
      
      <glyph glyph-name="voucher" unicode="&#59113;" d="M917.333333 0h-810.666666C46.933333 0 0 51.200000000000045 0 115.20000000000005v200.533333h42.666667c38.4 0 68.266667 29.866667 68.266666 68.266667 0 38.4-29.866667 68.266667-68.266666 68.266667H0V652.8C0 716.8 46.933333 768 106.666667 768h810.666666C977.066667 768 1024 716.8 1024 652.8v-200.533333h-42.666667c-38.4 0-68.266667-29.866667-68.266666-68.266667 0-38.4 29.866667-68.266667 68.266666-68.266667h42.666667v-200.533333c0-64-46.933333-115.2-106.666667-115.2zM85.333333 234.66666699999996v-119.466667c0-17.066667 12.8-29.866667 21.333334-29.866667h810.666666c8.533333 0 21.333333 12.8 21.333334 29.866667v119.466667c-64 17.066667-110.933333 76.8-110.933334 149.333333 0 68.266667 46.933333 128 110.933334 149.333333V652.8c0 17.066667-12.8 29.866667-21.333334 29.866667h-810.666666c-8.533333 0-21.333333-12.8-21.333334-29.866667v-119.466667c64-21.333333 110.933333-81.066667 110.933334-149.333333S149.333333 256 85.333333 234.66666699999996zM312.00000031 64.00000031000002c-24 0-40.00000031 16.00000031-40.00000031 39.99999938v40.00000031c0 24 16.00000031 40.00000031 40.00000031 40.00000031s40.00000031-16.00000031 39.99999938-40.00000031v-40.00000031c0-24-16.00000031-40.00000031-39.99999938-39.99999938zM312.00000031 583.99999969c-24 0-40.00000031 16.00000031-40.00000031 40.00000031V672c0 24 16.00000031 40.00000031 40.00000031 40.00000031s40.00000031-16.00000031 39.99999938-40.00000031V624c0-24-16.00000031-40.00000031-39.99999938-40.00000031zM312.00000031 408c-24 0-40.00000031 16.00000031-40.00000031 40.00000031V504c0 24 16.00000031 40.00000031 40.00000031 40.00000031s40.00000031-16.00000031 39.99999938-40.00000031v-55.99999969c0-24-16.00000031-40.00000031-39.99999938-40.00000031zM312.00000031 223.99999968999998c-24 0-40.00000031 16.00000031-40.00000031 40.00000031v55.99999969c0 24 16.00000031 40.00000031 40.00000031 40.00000031s40.00000031-16.00000031 39.99999938-40.00000031V264c0-19.99999969-16.00000031-40.00000031-39.99999938-40.00000031zM591.99999969 408c-12 0-19.99999969 4.00000031-27.99999938 12l-120 120c-16.00000031 16.00000031-16.00000031 40.00000031 0 55.99999969s40.00000031 16.00000031 55.99999969 0l120-120c16.00000031-16.00000031 16.00000031-40.00000031 0-55.99999969-7.99999969-7.99999969-16.00000031-12-28.00000031-12zM591.99999969 408c-12 0-19.99999969 4.00000031-27.99999938 12-16.00000031 16.00000031-16.00000031 40.00000031 0 55.99999969l120 120c16.00000031 16.00000031 40.00000031 16.00000031 55.99999969 0s16.00000031-40.00000031 0-55.99999969l-120-120c-7.99999969-7.99999969-16.00000031-12-28.00000031-12zM695.75000029 406.5h-225c-22.5 0-37.50000029 15.00000029-37.50000029 37.50000029s15.00000029 37.50000029 37.50000029 37.49999942h225c22.5 0 37.50000029-15.00000029 37.49999942-37.49999942s-15.00000029-37.50000029-37.49999942-37.50000029zM699.49999971 278.99999971h-225c-22.5 0-37.50000029 15.00000029-37.49999942 37.50000029s15.00000029 37.50000029 37.49999942 37.50000029h225c22.5 0 37.50000029-15.00000029 37.50000029-37.50000029s-15.00000029-37.50000029-37.50000029-37.50000029zM586.99999971 181.5c-22.5 0-37.50000029 15.00000029-37.49999942 37.50000029v225c0 22.5 15.00000029 37.50000029 37.49999942 37.49999942s37.50000029-15.00000029 37.50000029-37.49999942v-225c0-22.5-15.00000029-37.50000029-37.50000029-37.50000029z"  horiz-adv-x="1024" />
      
      <glyph glyph-name="Report" unicode="&#59670;" d="M312.1 304.5c3.1-3.1 8.2-3.1 11.3 0l101.8 101.8 86.1-86.2c3.1-3.1 8.2-3.1 11.3 0l226.3 226.5c3.1 3.1 3.1 8.2 0 11.3l-36.8 36.8c-3.1 3.1-8.2 3.1-11.3 0L517 410.7l-86.1 86.2c-3.1 3.1-8.2 3.1-11.3 0L275.3 352.6c-3.1-3.1-3.1-8.2 0-11.3l36.8-36.8zM904 736H548V800c0 4.4-3.6 8-8 8h-56c-4.4 0-8-3.6-8-8v-64H120c-17.7 0-32-14.3-32-32v-520c0-17.7 14.3-32 32-32h356.4v-32L311.6 11.9c-3.7-2.4-4.7-7.3-2.3-11l30.3-47.2v-0.1c2.4-3.7 7.4-4.7 11.1-2.3L512 57.1l161.3-105.8c3.7-2.4 8.7-1.4 11.1 2.3v0.1l30.3 47.2c2.4 3.7 1.3 8.6-2.3 11L548 119.7V152h356c17.7 0 32 14.3 32 32V704c0 17.7-14.3 32-32 32z m-40-512H160V664h704v-440z"  horiz-adv-x="1024" />
      
      <glyph glyph-name="broker" unicode="&#58906;" d="M409.6 332.8l41.152-205.824c2.304-11.52 7.68-21.632 15.104-29.824l37.568 150.272L460.8 332.8h102.4l-42.624-85.376 37.632-150.272a62.336 62.336 0 0 1 13.44 23.68l1.6 6.208L614.4 332.8h76.8a230.4 230.4 0 0 0 230.4-230.4v-128a102.4 102.4 0 0 0-102.4-102.4H204.8a102.4 102.4 0 0 0-102.4 102.4v128a230.4 230.4 0 0 0 230.4 230.4h76.8z m409.6-307.2h-102.4v-51.2h102.4v51.2zM512 896a256 256 0 1 0 0-512 256 256 0 0 0 0 512z"  horiz-adv-x="1024" />
      
      <glyph glyph-name="Connector" unicode="&#59046;" d="M352 725.333333a32 32 0 0 0 31.701333-27.648L384 693.333333v-118.314666l79.957333-120.106667a32 32 0 0 0 4.992-13.056l0.384-4.693333v-191.829334a32 32 0 0 0-27.690666-31.701333L437.333333 213.333333H383.829333v-138.837333a32 32 0 0 0-63.658666-4.309333l-0.298667 4.309333L319.829333 213.333333 234.666667 213.376v-139.008a32 32 0 0 0-63.701334-4.309333l-0.256 4.309333L170.666667 213.376 117.333333 213.333333a32 32 0 0 0-31.658666 27.648l-0.298667 4.352v191.829334a32 32 0 0 0 3.029333 13.653333l2.346667 4.096 79.957333 120.106667V693.333333a32 32 0 0 0 63.701334 4.352l0.298666-4.352v-128a32 32 0 0 0-3.072-13.653333l-2.304-4.096-79.957333-120.106667V277.333333H405.333333v150.186667L325.333333 547.541333a32 32 0 0 0-4.992 13.056L320 565.333333v128A32 32 0 0 0 352 725.333333z m298.837333-0.042666h191.829334a32 32 0 0 0 31.701333-27.690667l0.298667-4.309333L874.624 554.666667h32a32 32 0 0 0 31.744-27.648L938.666667 522.666667v-191.829334c0-4.736-1.066667-9.386667-3.072-13.653333l-2.304-4.096L853.333333 192.981333v-118.314666a32 32 0 0 0-63.744-4.352l-0.256 4.352v128c0 4.693333 1.024 9.386667 3.029334 13.653333l2.304 4.096L874.666667 340.48V490.666667h-255.914667v-150.186667l79.957333-120.064a31.957333 31.957333 0 0 0 5.034667-13.056l0.341333-4.693333v-128a32 32 0 0 0-63.701333-4.352l-0.298667 4.352v118.314666l-79.957333 120.106667a32 32 0 0 0-5.034667 13.056l-0.341333 4.693333V522.666667a32 32 0 0 0 27.648 31.701333L586.752 554.666667h32.085333V693.290667a32 32 0 0 0 27.690667 31.701333l4.309333 0.298667h191.829334-191.829334zM810.666667 661.290667h-127.829334V554.666667h127.786667V661.290667z"  horiz-adv-x="1024" />
      
      <glyph glyph-name="channel" unicode="&#58895;" d="M853.333333 213.33333300000004a128 128 0 0 1-73.813333-23.893333l-104.533333 61.866667A159.573333 159.573333 0 0 1 682.666667 298.66666699999996a170.666667 170.666667 0 0 1-128 164.693333V562.346667a128 128 0 1 1-85.333334 0v-98.986667A170.666667 170.666667 0 0 1 341.333333 298.66666699999996c0.170667-16.085333 2.730667-32.042667 7.68-47.36l-104.533333-61.866667A128 128 0 0 1 170.666667 213.33333300000004a128 128 0 1 1 128-128 128 128 0 0 1-5.12 34.133334l98.133333 58.453333a170.666667 170.666667 0 0 1 240.64 0l98.133333-58.453333A128 128 0 1 1 853.333333 213.33333300000004zM170.666667 42.66666699999996a42.666667 42.666667 0 1 0 0 85.333333 42.666667 42.666667 0 0 0 0-85.333333z m341.333333 682.666666a42.666667 42.666667 0 1 0 0-85.333333 42.666667 42.666667 0 0 0 0 85.333333z m0-512a85.333333 85.333333 0 1 0 0 170.666667 85.333333 85.333333 0 0 0 0-170.666667z m341.333333-170.666666a42.666667 42.666667 0 1 0 0 85.333333 42.666667 42.666667 0 0 0 0-85.333333z"  horiz-adv-x="1024" />
      
      <glyph glyph-name="nav-report-overview" unicode="&#58904;" d="M457.472 873.728a81.632 81.632 0 0 0 109.696 0l437.696-421.056a40.96 40.96 0 0 0 2.976-57.76c-15.136-16.864-40.928-18.144-59.104-1.696v-434.208a81.824 81.824 0 0 0-81.824-81.792h-243.776v246.4a57.664 57.664 0 0 1-57.664 57.568H453.44a57.696 57.696 0 0 1-57.664-57.664v-246.304H157.536a81.792 81.792 0 0 0-81.696 81.92V398.592l-7.04-6.688a40.896 40.896 0 1 0-54.816 60.768zM682.656 384H341.312a56.896 56.896 0 1 1 0-113.792h341.344a56.896 56.896 0 1 1 0 113.792z"  horiz-adv-x="1024" />
      
      <glyph glyph-name="payment" unicode="&#58907;" d="M565.333 810.667C747.947 810.667 896 662.613 896 480c0-76.096-25.707-146.197-68.907-202.07A99.947 99.947 0 0 0 928 213.334a90.624 90.624 0 0 0-48.832-114.965l-4.693-1.877-265.643-97.878a192 192 0 0 0-110.357-6.72L192 64H93.867a8.533 8.533 0 0 0-8.534 8.533v46.934A8.533 8.533 0 0 0 93.845 128h105.6l313.686-73.813a128 128 0 0 1 67.626 2.474l5.952 2.006 265.792 97.92c13.76 5.184 20.736 20.522 15.574 34.282a35.99 35.99 0 0 1-40 22.784l-3.158-0.704-155.008-42.282H477.867a8.533 8.533 0 0 0-8.534 8.533v46.933c0 4.694 3.84 8.534 8.534 8.534H544a32 32 0 0 1 3.072 63.85l-3.072 0.15H93.845a8.533 8.533 0 0 0-8.533 8.533v46.933c0.021 4.694 3.84 8.534 8.555 8.534l162.24-0.022A329.92 329.92 0 0 0 234.667 480c0 182.613 148.053 330.667 330.666 330.667z m0-64c-147.285 0-266.666-119.382-266.666-266.667 0-42.112 9.77-81.92 27.136-117.333h207.53v42.666h-76.8a8.533 8.533 0 0 0-8.533 8.534V460.8c0 4.693 3.84 8.533 8.533 8.533h76.779v21.334h-76.779A8.533 8.533 0 0 0 448 499.2v46.933c0 4.694 3.84 8.534 8.533 8.534h65.387l-56.15 56.128a8.533 8.533 0 0 0 0 12.074l33.195 33.195a8.533 8.533 0 0 0 12.054 0l54.314-54.315 54.315 54.315a8.533 8.533 0 0 0 12.053 0l33.195-33.195a8.533 8.533 0 0 0 0-12.074l-56.17-56.128h65.407c4.694 0 8.534-3.84 8.534-8.534V499.2a8.533 8.533 0 0 0-8.534-8.533h-76.821v-21.334h76.821c4.694 0 8.534-3.84 8.534-8.533v-46.933a8.533 8.533 0 0 0-8.534-8.534h-76.821v-58.816a95.915 95.915 0 0 0 37.227-111.872l26.794 0.022 21.398 5.824A266.667 266.667 0 0 1 832 480c0 147.285-119.381 266.667-266.667 266.667z"  horiz-adv-x="1024" />
      
      <glyph glyph-name="coupon" unicode="&#58917;" d="M1073.749 551.286H305.075c-64.019 0-115.915-47.827-115.915-106.825v-403.636C189.16-18.174 241.058-66 305.075-66h770.437s-9.404 22.101-9.701 34.128c-0.313 12.672 23.347 37.678 23.347 37.678v37.679s-23.347 25.002-23.347 37.679 23.347 37.679 23.347 37.679v37.679s-23.347 25.002-23.347 37.679c0 12.678 23.347 37.679 23.347 37.679v37.679s-23.347 25.002-23.347 37.679 23.347 37.679 23.347 37.679v37.679s-23.347 25.003-23.347 37.679 23.347 37.679 23.347 37.679v37.677s-23.347 25.002-23.347 37.679c0 12.679 7.938 17.979 7.938 17.979z m-48.091-48.551v-44.784s-23.347-25.003-23.347-37.679c0-12.677 23.347-37.679 23.347-37.679v-37.679s-23.347-25.001-23.347-37.679c0-12.677 23.347-37.678 23.347-37.678v-37.679s-23.347-25.002-23.347-37.679c0-12.678 23.347-37.679 23.347-37.679v-37.679s-23.347-25.002-23.347-37.679 23.347-37.679 23.347-37.679v-39.254l-7.638-21.403-719.773 0.001c-25.136 0-56.224 33.877-56.224 72.098V458.037c1.323 15.903 21.828 44.526 42.334 44.526l741.301 0.17z m-379.921-336.37c-0.016 0-0.031-0.007-0.047-0.007v0.275h-91.328V222.15h91.329v0.295c0.016 0 0.031-0.006 0.047-0.006 10.94 0 19.808 8.869 19.808 19.808s-8.869 19.808-19.808 19.808c-0.016 0-0.031-0.007-0.047-0.007v0.007h-77.772l85.277 157.072c3.114 4.237 5.014 9.419 5.014 15.081 0 14.123-11.449 25.572-25.57 25.572-11.046 0-20.37-7.043-23.945-16.853h-0.188S534.748 298.881 531.34 289.16h-1.023c-4.775 12.108-80.586 153.767-80.586 153.767h-0.192c-3.469 9.795-12.72 16.853-23.705 16.853-13.941 0-25.241-11.301-25.241-25.241a25.114 25.114 0 0 1 4.304-14.1l-0.127-0.067 84.868-158.315h-79.305c-10.94 0-19.808-8.869-19.808-19.808s8.869-19.808 19.808-19.808v-0.29h94.142v-55.517h-94.142v-0.271c-10.94 0-19.808-8.869-19.808-19.808 0-10.942 8.869-19.808 19.808-19.808v-0.275h94.142v-79.819h0.543a24.984 24.984 0 0 1-0.524-5.07c0-13.739 11.138-24.878 24.879-24.878 13.739 0 24.878 11.138 24.878 24.878 0 1.738-0.185 3.432-0.523 5.07h0.636v79.819h91.329v0.279c0.017 0 0.031-0.007 0.048-0.007 10.94 0 19.808 8.869 19.808 19.808-0.005 10.942-8.873 19.811-19.813 19.811z m160.965 279.6c0 12.354 12.189 22.37 27.226 22.37 15.037 0 27.226-10.016 27.226-22.37v-33.4c0-12.354-12.189-22.37-27.226-22.37-15.037 0-27.226 10.016-27.226 22.37v33.4z m0-123.341c0 12.355 12.189 22.37 27.226 22.37 15.037 0 27.226-10.015 27.226-22.37v-33.399c0-12.355-12.189-22.37-27.226-22.37-15.037 0-27.226 10.015-27.226 22.37v33.399z m0-123.339c0 12.354 12.189 22.37 27.226 22.37 15.037 0 27.226-10.016 27.226-22.37v-33.4c0-12.354-12.189-22.37-27.226-22.37-15.037 0-27.226 10.016-27.226 22.37v33.4z m0-123.34c0 12.355 12.189 22.37 27.226 22.37 15.037 0 27.226-10.015 27.226-22.37v-33.4c0-12.354-12.189-22.369-27.226-22.369-15.037 0-27.226 10.015-27.226 22.369v33.4zM376.234 585.692l22.747 59.906c6.881 14.397 33.688 27.232 52.86 19.953l210.465-79.859h157.122L485.206 712.599c-59.849 22.726-125.344-3.565-146.287-58.719l-25.891-68.187h63.205z m185.118 136.707l41.214 48.116c11.349 11.217 40.92 14.22 56.494 0.879l177.95-152.35 88.957-33.352h35.718L706.383 804.369c-48.621 41.646-119.147 39.083-157.527-5.726l-46.392-54.161 58.889-22.081z"  horiz-adv-x="1332" />
      
      <glyph glyph-name="xitong" unicode="&#59045;" d="M932.497495 716.837504c-14.09195 14.053064-32.82357 21.792329-52.743248 21.792329-160.710238 0-311.412542 132.151809-312.899406 133.471874-13.673417 12.409634-31.441083 19.244296-50.02637 19.244296-18.399045 0-36.132942-6.78452-49.929156-19.102057-0.38067-0.338714-38.763862-34.235732-96.928586-67.585281-52.535517-30.122041-132.652206-66.028832-215.986169-66.028832-41.180911 0-74.683956-33.370015-74.683956-74.386174l0-218.717374c0-198.798718 118.086465-365.582279 394.850883-557.683459 12.514012-8.695033 27.27111-13.291724 42.676985-13.291724 15.409968 0 30.16502 4.596691 42.670845 13.291724C836.263733 79.946053 954.349175 246.730637 954.349175 445.527308L954.349175 664.245705C954.350199 684.107055 946.590468 702.78444 932.497495 716.837504zM877.707634 445.528332c0-120.378671-42.910299-273.204335-360.879164-494.098281C198.92919 172.338323 156.030148 325.157847 156.030148 445.528332L156.030148 662.205233c43.726897 0.24457 89.77056 8.302083 136.888693 23.960715 38.246069 12.709463 77.286224 30.42801 116.034736 52.66343 59.390645 34.08019 100.050694 68.589145 107.872846 75.40641 7.818059-6.817266 48.459688-41.326221 107.850333-75.40641 38.748513-22.23542 77.793784-39.952944 116.055203-52.66343 47.13553-15.658631 93.208868-23.716144 136.973628-23.960715L877.707634 445.528332zM704.678836 342.955188l-26.700105 15.557324c1.426489 9.017374 2.122337 17.401322 2.122337 25.487487 0 8.02886-0.697895 16.410762-2.127454 25.484418l26.699082 15.546068c16.399505 9.538237 22.048155 30.750351 12.588713 47.285956l-26.729781 46.694485c-6.126534 10.698666-17.559934 17.344017-29.839609 17.344017-6.021134 0-11.971659-1.610684-17.21201-4.65809l-26.978445-15.708773c-13.631462 11.027148-28.170596 19.640316-43.346227 25.678846l0 17.568121c0 19.09694-15.439644 34.633798-34.417881 34.633798l-53.472865 0c-18.971074 0-34.404578-15.536858-34.404578-34.633798l0-17.5804c-15.180747-6.03546-29.724998-14.649652-43.360554-25.679869l-26.981515 15.71082c-5.237281 3.046383-11.186783 4.657067-17.204847 4.657067-12.273535 0-23.703865-6.64535-29.829376-17.34197l-26.744107-46.681182c-9.463536-16.525372-3.816932-37.732369 12.583596-47.272653l26.697035-15.545044c-1.426489-9.016351-2.122337-17.398252-2.122337-25.486464 0-8.027837 0.697895-16.409738 2.127454-25.485441l-26.693965-15.554254c-16.411785-9.529027-22.060435-30.730908-12.592806-47.264467l26.742061-46.691415c6.121418-10.698666 17.554818-17.344017 29.837562-17.342993 6.018064 0 11.965519 1.608637 17.201777 4.65502l26.976398 15.708773c13.620206-11.028171 28.16548-19.645432 43.3626-25.690102l0-17.582447c0-19.09694 15.434527-34.634822 34.404578-34.634822l53.472865 0c18.978237 0 34.417881 15.537881 34.417881 34.634822l0 17.571191c15.20019 6.054903 29.740348 14.671141 43.348274 25.689079l26.979468-15.71082c5.233188-3.044336 11.181667-4.653997 17.199731-4.653997 12.280698 0 23.717168 6.644327 29.849842 17.34197l26.727735 46.690392C726.728014 312.210977 721.081411 333.412858 704.678836 342.955188zM486.813876 259.446239c-26.423813 5.405103-50.941206 19.715017-69.035306 40.291658l-4.168949 4.742001-42.586934-24.793686c-0.880043-0.51063-1.831718-0.77055-2.827395-0.77055-2.049682 0-3.888564 1.076518-4.922103 2.882654l-13.372565 23.347754c-1.598404 2.788509-0.657986 6.360871 2.095731 7.963369l42.671868 24.837688-1.963725 5.915733c-4.454452 13.416568-6.712889 26.921139-6.712889 40.136116 0 13.169951 2.263553 26.680663 6.728238 40.155559l1.959631 5.913687-42.680055 24.834618c-2.75167 1.601474-3.690042 5.177929-2.093684 7.969509l13.355169 23.341614c1.019213 1.777483 2.911306 2.88163 4.938476 2.88163 0.991584 0 1.935072-0.25685 2.805906-0.76441l42.608423-24.813129 4.168949 4.745071c18.075681 20.570501 42.583864 34.883485 69.010747 40.304961l6.132674 1.257643 0 35.929304c0 3.200902 2.555196 5.804193 5.696746 5.804193l26.730805 0c3.140527 0 5.695722-2.603291 5.695722-5.804193l0-35.932374 6.136767-1.255597c26.424836-5.406127 50.942229-19.715017 69.035306-40.292682l4.168949-4.740978 42.606377 24.796756c0.873903 0.509606 1.821485 0.76748 2.816139 0.76748 2.053776 0 3.895727-1.076518 4.928243-2.882654l13.368472-23.342638c1.599428-2.794649 0.659009-6.381337-2.076288-7.982812L629.346103 430.054919l1.962701-5.915733c4.455475-13.430894 6.713912-26.939559 6.713912-40.152489 0-13.202697-2.258437-26.708292-6.713912-40.139186l-1.962701-5.915733 42.683125-24.835641c2.750647-1.601474 3.690042-5.177929 2.095731-7.965415l-13.373589-23.350824c-1.031493-1.803066-2.873444-2.87856-4.926196-2.87856-0.99363 0-1.940189 0.258896-2.815115 0.76748l-42.591027 24.796756-4.168949-4.738931c-18.107403-20.580734-42.62582-34.891671-69.037353-40.294728l-6.136767-1.255597 0-35.932374c0-3.200902-2.555196-5.804193-5.696746-5.804193l-26.729781 0c-3.14155 0-5.696746 2.603291-5.696746 5.804193l0 35.9467L486.813876 259.446239zM586.525855 384c0 41.395806-33.429367 75.072813-74.520227 75.072813-41.089837 0-74.519204-33.67803-74.519204-75.072813 0-41.394782 33.428344-75.071789 74.519204-75.071789C553.081139 308.928211 586.511529 342.604194 586.525855 384zM512.005628 416.764218c17.880229 0 32.426527-14.697747 32.426527-32.764218 0-18.065448-14.547321-32.764218-32.426527-32.764218-17.879206 0-32.425504 14.697747-32.425504 32.764218C479.580125 402.066471 494.126422 416.764218 512.005628 416.764218z"  horiz-adv-x="1024" />
      
      <glyph glyph-name="gongsi" unicode="&#58915;" d="M564.2 757.2c0.1 10.3-10.5 17.4-20.6 13.9L212.7 652.4c-6-2.1-10-7.7-10-13.9v-572.6h361.5V757.2zM359.8 179.7c0-12.3-10.2-22.3-23-22.3h-40.2c-12.7 0-23 9.9-23 22.3v14.8c0 12.3 10.2 22.3 23 22.3h40.2c12.7 0 23-9.9 23-22.3v-14.8z m0 86.8c0-12.3-10.2-22.3-23-22.3h-40.2c-12.7 0-23 9.9-23 22.3v14.8c0 12.3 10.2 22.3 23 22.3h40.2c12.7 0 23-9.9 23-22.3v-14.8z m0 91.3c0-12.3-10.2-22.3-23-22.3h-40.2c-12.7 0-23 9.9-23 22.3v14.8c0 12.3 10.2 22.3 23 22.3h40.2c12.7 0 23-9.9 23-22.3v-14.8z m0 89.5c0-12.3-10.2-22.3-23-22.3h-40.2c-12.7 0-23 9.9-23 22.3v14.8c0 12.3 10.2 22.3 23 22.3h40.2c12.7 0 23-9.9 23-22.3v-14.8z m0 89.4c0-12.3-10.2-22.3-23-22.3h-40.2c-12.7 0-23 9.9-23 22.3v14.8c0 12.3 10.2 22.3 23 22.3h40.2c12.7 0 23-9.9 23-22.3v-14.8z m135.8-357c0-12.3-10.2-22.3-23-22.3h-40.2c-12.7 0-23 9.9-23 22.3v14.8c0 12.3 10.2 22.3 23 22.3h40.2c12.7 0 23-9.9 23-22.3v-14.8z m0 86.8c0-12.3-10.2-22.3-23-22.3h-40.2c-12.7 0-23 9.9-23 22.3v14.8c0 12.3 10.2 22.3 23 22.3h40.2c12.7 0 23-9.9 23-22.3v-14.8z m0 91.3c0-12.3-10.2-22.3-23-22.3h-40.2c-12.7 0-23 9.9-23 22.3v14.8c0 12.3 10.2 22.3 23 22.3h40.2c12.7 0 23-9.9 23-22.3v-14.8z m0 89.5c0-12.3-10.2-22.3-23-22.3h-40.2c-12.7 0-23 9.9-23 22.3v14.8c0 12.3 10.2 22.3 23 22.3h40.2c12.7 0 23-9.9 23-22.3v-14.8z m0 89.4c0-12.3-10.2-22.3-23-22.3h-40.2c-12.7 0-23 9.9-23 22.3v14.8c0 12.3 10.2 22.3 23 22.3h40.2c12.7 0 23-9.9 23-22.3v-14.8z m0 87.3c0-12.3-10.2-22.3-23-22.3h-40.2c-12.7 0-23 9.9-23 22.3v14.8c0 12.3 10.2 22.3 23 22.3h40.2c12.7 0 23-9.9 23-22.3V624zM838.2 557.7c0.1 5.5-3 10.5-7.9 13.1L613.4 684.4c-10.2 5.4-22.6-1.9-22.6-13.1v-605.5h247.4V557.7z m-83.6-378c0-12.3-10.2-22.3-23-22.3h-40.2c-12.7 0-23 9.9-23 22.3v14.8c0 12.3 10.2 22.3 23 22.3h40.2c12.7 0 23-9.9 23-22.3v-14.8z m0 86.8c0-12.3-10.2-22.3-23-22.3h-40.2c-12.7 0-23 9.9-23 22.3v14.8c0 12.3 10.2 22.3 23 22.3h40.2c12.7 0 23-9.9 23-22.3v-14.8z m0 91.3c0-12.3-10.2-22.3-23-22.3h-40.2c-12.7 0-23 9.9-23 22.3v14.8c0 12.3 10.2 22.3 23 22.3h40.2c12.7 0 23-9.9 23-22.3v-14.8z m0 89.5c0-12.3-10.2-22.3-23-22.3h-40.2c-12.7 0-23 9.9-23 22.3v14.8c0 12.3 10.2 22.3 23 22.3h40.2c12.7 0 23-9.9 23-22.3v-14.8z m0 89.4c0-12.3-10.2-22.3-23-22.3h-40.2c-12.7 0-23 9.9-23 22.3v14.8c0 12.3 10.2 22.3 23 22.3h40.2c12.7 0 23-9.9 23-22.3v-14.8zM876-4.8H147.2c-8.4 0-15.2 8-15.2 17.7v35.3c0 9.7 6.8 17.7 15.2 17.7H876c8.4 0 15.2-8 15.2-17.7v-35.3c0-9.8-6.8-17.7-15.2-17.7z"  horiz-adv-x="1024" />
      
      <glyph glyph-name="Undo" unicode="&#60805;" d="M512 571.733333V759.466667c0 6.826667-3.413333 13.653333-10.24 13.653333-6.826667 3.413333-13.653333 3.413333-17.066667 0l-477.866666-307.2c-3.413333-3.413333-6.826667-6.826667-6.826667-13.653333s3.413333-10.24 6.826667-13.653334l477.866666-341.333333c6.826667-3.413333 13.653333-3.413333 17.066667 0 6.826667 3.413333 10.24 10.24 10.24 13.653333v187.733334c249.173333-10.24 474.453333-235.52 477.866667-290.133334 0-10.24 6.826667-17.066667 17.066666-17.066666s17.066667 6.826667 17.066667 17.066666c-3.413333 225.28-170.666667 552.96-512 563.2z"  horiz-adv-x="1024" />
      
      <glyph glyph-name="Redo" unicode="&#60810;" d="M1017.173333 465.92l-477.866666 307.2c-6.826667 3.413333-13.653333 3.413333-17.066667 0-6.826667-3.413333-10.24-6.826667-10.24-13.653333v-187.733334C170.666667 561.493333 3.413333 233.813333 0 8.533333v-3.413333c0-6.826667 6.826667-13.653333 17.066667-13.653333s17.066667 6.826667 17.066666 17.066666c3.413333 51.2 228.693333 279.893333 477.866667 290.133334V110.933333c0-6.826667 3.413333-13.653333 10.24-13.653333 6.826667-3.413333 13.653333-3.413333 17.066667 0l477.866666 341.333333c3.413333 3.413333 6.826667 10.24 6.826667 13.653334s-3.413333 10.24-6.826667 13.653333z"  horiz-adv-x="1024" />
      
      <glyph glyph-name="align_to_left" unicode="&#59687;" d="M853.333333 341.333333H213.333333v85.333334h384a42.666667 42.666667 0 0 1 42.666667 42.666666V640a42.666667 42.666667 0 0 1-42.666667 42.666667H213.333333V746.666667a21.333333 21.333333 0 0 1-21.333333 21.333333h-42.666667a21.333333 21.333333 0 0 1-21.333333-21.333333v-725.333334a21.333333 21.333333 0 0 1 21.333333-21.333333h42.666667a21.333333 21.333333 0 0 1 21.333333 21.333333V85.333333h640a42.666667 42.666667 0 0 1 42.666667 42.666667v170.666667a42.666667 42.666667 0 0 1-42.666667 42.666666z"  horiz-adv-x="1024" />
      
      <glyph glyph-name="align_to_right" unicode="&#59688;" d="M874.666667 768h-42.666667a21.333333 21.333333 0 0 1-21.333333-21.333333V682.666667h-384a42.666667 42.666667 0 0 1-42.666667-42.666667v-170.666667a42.666667 42.666667 0 0 1 42.666667-42.666666h384v-85.333334H170.666667a42.666667 42.666667 0 0 1-42.666667-42.666666v-170.666667a42.666667 42.666667 0 0 1 42.666667-42.666667h640v-64a21.333333 21.333333 0 0 1 21.333333-21.333333h42.666667a21.333333 21.333333 0 0 1 21.333333 21.333333v725.333334a21.333333 21.333333 0 0 1-21.333333 21.333333z"  horiz-adv-x="1024" />
      
      <glyph glyph-name="313alignbottom" unicode="&#59327;" d="M256-32h128c35.2 0 64 28.8 64 64V800c0 35.2-28.8 64-64 64H256c-35.2 0-64-28.8-64-64v-768c0-35.2 28.8-64 64-64zM640-32h128c35.2 0 64 28.8 64 64V544c0 35.2-28.8 64-64 64h-128c-35.2 0-64-28.8-64-64v-512c0-35.2 28.8-64 64-64zM960-64H64c-16 0-32-16-32-32s16-32 32-32h896c16 0 32 16 32 32s-16 32-32 32z"  horiz-adv-x="1024" />
      
      <glyph glyph-name="318alignTop" unicode="&#59329;" d="M384 800H256c-35.2 0-64-28.8-64-64v-512c0-35.2 28.8-64 64-64h128c35.2 0 64 28.8 64 64V736c0 35.2-28.8 64-64 64zM768 800h-128c-35.2 0-64-28.8-64-64v-768c0-35.2 28.8-64 64-64h128c35.2 0 64 28.8 64 64V736c0 35.2-28.8 64-64 64zM992 896H32C16 896 0 880 0 864s16-32 32-32h960c16 0 32 16 32 32 0 19.2-16 32-32 32z"  horiz-adv-x="1024" />
      
      <glyph glyph-name="a-Aligncentercolumn" unicode="&#58885;" d="M960 416H544v-64h416v-320H544v-160h-64v160H64V352h416v64H64V736h416V896h64v-160h416v-320z"  horiz-adv-x="1024" />
      
      <glyph glyph-name="a-Aligncenterrow" unicode="&#58886;" d="M480 832v-416h64V832h320v-416h160v-64h-160v-416H544V352h-64v-416H160V352H0v64h160V832h320z"  horiz-adv-x="1024" />
      
      <glyph glyph-name="yemian" unicode="&#58901;" d="M207.644444 896C139.377778 896 85.333333 841.955556 85.333333 776.533333v-785.066666C85.333333-73.955556 139.377778-128 207.644444-128h611.555556c65.422222 0 122.311111 54.044444 122.311111 119.466667V654.222222L694.044444 896H207.644444z m577.422223-952.888889H236.088889c-45.511111 0-73.955556 25.6-73.955556 71.111111V750.933333c0 45.511111 28.444444 68.266667 73.955556 68.266667h432.355555v-130.844444c0-25.6 22.755556-48.355556 48.355556-48.355556h150.755556v-625.777778c2.844444-45.511111-34.133333-71.111111-82.488889-71.111111z m-119.466667 258.844445H358.4c-17.066667 0-31.288889 14.222222-31.288889 31.288888 0 17.066667 14.222222 31.288889 31.288889 31.288889h304.355556c17.066667 0 31.288889-14.222222 31.288888-31.288889s-11.377778-31.288889-28.444444-31.288888z m0 119.466666H358.4c-17.066667 0-31.288889 14.222222-31.288889 31.288889 0 17.066667 14.222222 31.288889 31.288889 31.288889h304.355556c17.066667 0 31.288889-14.222222 31.288888-31.288889s-11.377778-31.288889-28.444444-31.288889z m0 122.311111H358.4c-17.066667 0-31.288889 14.222222-31.288889 31.288889 0 17.066667 14.222222 31.288889 31.288889 31.288889h304.355556c17.066667 0 31.288889-14.222222 31.288888-31.288889s-11.377778-31.288889-28.444444-31.288889z"  horiz-adv-x="1024" />
      
      <glyph glyph-name="chemical_element" unicode="&#60592;" d="M597.376 281.812c-11.812 0-21.376-9.562-21.376-21.344v-170.656c0-11.782 9.562-21.344 21.376-21.344 11.75 0 21.312 9.562 21.312 21.344v170.656c0 11.782-9.564 21.344-21.312 21.344zM433.312 285.906l-147.812 85.344c-10.188 5.876-23.25 2.376-29.124-7.812-5.876-10.218-2.376-23.25 7.812-29.156L412 248.938c10.188-5.876 23.25-2.376 29.124 7.812 5.876 10.218 2.438 23.25-7.812 29.156zM774.5 465.938V744.468L512 896 249.5 744.468v-278.532L8.312 326.688v-303.124L270.812-128 512 11.25 753.188-128l262.5 151.562V326.688L774.5 465.938zM292.188 719.812L512 846.75l219.876-126.938v-253.844L512 339.062l-219.812 126.906V719.812zM51 48.218V302.062l219.812 126.906 219.876-126.906v-253.844L270.812-78.72 51 48.218z m922 0L753.188-78.72l-219.812 126.938V302.062l219.812 126.906L973 302.062v-253.844zM497.312 789L349.5 703.656c-10.188-5.876-13.688-18.938-7.812-29.124 5.938-10.218 19-13.718 29.188-7.812l147.812 85.344c10.188 5.876 13.688 18.938 7.812 29.124a21.362 21.362 0 0 1-29.188 7.812z"  horiz-adv-x="1024" />
      
      <glyph glyph-name="yooxi" unicode="&#58891;" d="M958.652178 835.036533 70.488913 835.036533c-10.857279 0-19.655665-8.806573-19.655665-19.661805l0-888.152009c0-10.866489 8.798387-19.665899 19.655665-19.665899l888.163265 0c10.851139 0 19.661805 8.79941 19.661805 19.665899L978.313983 815.374728C978.313983 826.22996 969.50434 835.036533 958.652178 835.036533zM524.883937 731.238492l266.955005-231.18943L658.361951 268.859633 391.406946 268.859633 257.929955 500.048039 524.883937 731.238492zM309.546543 184.545342l-0.282433-26.123984-0.423649-42.009789 0.423649-43.774993 0.282433-30.714536c0-2.824325-0.297782-4.747117-0.893346-5.76633-0.595564-1.01819-1.769296-1.528819-3.518127-1.528819-1.827625 0-3.079128 0.549515-3.75451 1.644453-0.676405 1.095961-1.013073 3.094478-1.013073 5.994528l0.11768 9.991562 0.353041 59.000765 0 21.861914-4.471848 0.14224-22.946618 0.563842-50.482765-0.705058 0.101307-32.437783 0.604774-63.820538-72.134901 0 0.706081 102.024651-0.282433 26.947745-0.140193 24.829502-0.283456 6.825452 72.134901 0-0.11768-6.131651-0.588401-49.293683c8.025791-0.470721 20.773116-0.705058 38.242999-0.705058 16.051581 0 29.269627 0.234337 39.658232 0.705058l-0.353041 33.135678-0.353041 14.738679c0 3.851725 0.321318 6.445806 0.964978 7.782244 0.64366 1.335415 1.970888 2.003634 3.982708 2.003634 3.055592 0 4.583388-2.393513 4.583388-7.178493L309.546543 184.545342zM489.825466 80.755488c-8.081049-17.10354-20.672832-30.086226-37.774325-38.950104-12.552897-6.510274-25.732058-9.767458-39.539528-9.767458-14.591323 0-28.399817 3.687996-41.421388 11.06194-17.3389 9.726525-29.695323 23.37743-37.068244 40.951691-4.550643 10.746762-6.825452 21.847587-6.825452 33.302477 0 14.355963 3.569292 28.04473 10.708899 41.068348 8.785084 16.004509 21.612227 27.966958 38.480406 35.891442 11.217483 5.254677 23.258727 7.922437 36.125779 8.001231 12.394285 0 24.358781-2.628874 35.891442-7.883551 16.945951-7.766894 29.889751-19.73139 38.833447-35.891442 7.137561-12.9438 10.707876-27.02654 10.707876-42.24515C497.945401 104.055147 495.238756 92.209354 489.825466 80.755488zM657.87281 36.862815l-22.51376 83.191724-48.628534-73.071226-49.858548 69.455885c-4.812609-16.949021-10.06217-37.744649-15.744589-62.382792-2.051729-9.417487-3.52836-15.008832-4.428869-16.778128-0.901533-1.76725-2.723018-2.651386-5.465478-2.651386-3.446495 0-5.169743 1.175779-5.169743 3.529383 0 0.706081 1.099031 4.6673 3.298116 11.885701l7.305383 25.064862 12.724813 43.304272 24.860201 84.609003 64.428382-93.386924 61.603033 93.386924 25.621541-87.668689 11.637038-38.832424 10.460236-35.18536 1.410116-4.471848L657.87281 36.861792zM889.334439 37.094082c-0.549515-0.076748-3.806699-0.154519-9.767458-0.232291L745.887376 36.861792l0.11768 6.118348 0.11768 39.304168 0.470721 42.12747-0.941442 73.076342 124.735909 0c5.569856 0 8.747221-0.115634 9.532097-0.347924 1.804089-0.464581 2.706645-1.779529 2.706645-3.944845 0-2.707668-1.727341-4.061502-5.177929-4.061502l-0.824785 0-58.954717 0.705058-0.470721-36.478819 12.82612-0.11768 41.187051 0.706081 9.060353 0.116657c3.295046 0 5.471618-0.278339 6.53074-0.833995 1.059122-0.556679 1.589195-1.670036 1.589195-3.339048 0-3.101641-2.588965-4.65195-7.766894-4.65195l-9.296737 0.282433-54.129828 0.422625c-0.157589-3.609201-0.23536-8.001231-0.23536-13.179161l0-7.060813 0.824785-81.196277 39.891546 0.403183 28.242228 0.303922c4.627391 0 6.943133-1.393743 6.943133-4.178159C892.864846 38.719092 891.688044 37.403121 889.334439 37.094082zM446.285834 187.369667c-10.984169 5.177929-22.555715 7.766894-34.714639 7.766894-2.824325 0-5.609765-0.234337-8.355295-0.705058l-0.706081-76.606749 0.588401-63.662949 0.11768-14.355963c2.665713-0.470721 5.216815-0.706081 7.649214-0.706081 17.336854 0 32.831756 4.78498 46.481637 14.356986 12.473079 8.785084 21.494547 20.081361 27.065426 33.889855 3.922333 9.649777 5.884011 19.651572 5.884011 30.007431 0 13.649881-3.295046 26.359344-9.885138 38.126342C472.33 169.913087 460.954929 180.544215 446.285834 187.369667z"  horiz-adv-x="1024" />
      
      <glyph glyph-name="tubiao" unicode="&#58928;" d="M437.996 198.481 437.996 198.481 437.996 309.278 327.195 309.278c-61.187 0-110.797-49.61-110.797-110.797 0-61.195 49.61-110.797 110.797-110.797C388.387 87.684 437.996 137.286 437.996 198.481L437.996 198.481 437.996 198.481 437.996 198.481zM493.395 198.481c0-91.789-74.411-166.195-166.2-166.195C235.41 32.286 161 106.692 161 198.481c0 91.789 74.41 166.195 166.195 166.195l110.801 0 55.399 0 0-55.398L493.395 198.481 493.395 198.481 493.395 198.481zM585.723 198.481 585.723 309.278 696.52 309.278c61.195 0 110.796-49.61 110.796-110.797 0-61.195-49.601-110.797-110.796-110.797C635.332 87.684 585.723 137.286 585.723 198.481L585.723 198.481 585.723 198.481zM530.324 198.481c0-91.789 74.41-166.195 166.196-166.195 91.789 0 166.199 74.406 166.199 166.195 0 91.789-74.41 166.195-166.199 166.195L585.723 364.676l-55.399 0 0-55.398L530.324 198.481 530.324 198.481 530.324 198.481zM437.996 567.805l0-110.801L327.195 457.004c-61.187 0-110.797 49.61-110.797 110.801 0 61.188 49.61 110.797 110.797 110.797C388.387 678.602 437.996 628.993 437.996 567.805L437.996 567.805 437.996 567.805zM493.395 567.805c0 91.785-74.411 166.195-166.2 166.195C235.41 734 161 659.59 161 567.805c0-91.789 74.41-166.199 166.195-166.199l110.801 0 55.399 0 0 55.398L493.395 567.805 493.395 567.805 493.395 567.805zM585.723 567.805l0-110.801L696.52 457.004c61.195 0 110.796 49.61 110.796 110.801 0 61.188-49.601 110.797-110.796 110.797C635.332 678.602 585.723 628.993 585.723 567.805L585.723 567.805 585.723 567.805zM530.324 567.805 530.324 567.805C530.324 659.59 604.734 734 696.52 734c91.789 0 166.199-74.41 166.199-166.195 0-91.789-74.41-166.199-166.199-166.199L585.723 401.606l-55.399 0 0 55.398L530.324 567.805 530.324 567.805 530.324 567.805zM530.324 567.805"  horiz-adv-x="1024" />
      
      <glyph glyph-name="peizhi" unicode="&#58903;" d="M545.01 329.54h351.47v-60.31H545.01zM545.01 186.13h351.47v-60.31H545.01zM545.01 42.71h351.47v-60.31H545.01zM499.22 206.67c-97 0-175.83 78.88-175.83 175.83s78.88 175.83 175.83 175.83S675 479.45 675 382.5h-60.26A115.52 115.52 0 1 1 499.22 267zM499.4-19.29h-70.29a50 50 0 0 0-49.94 49.94v59.88l-42.66-42.66a49.15 49.15 0 0 0-35-14.72 49.88 49.88 0 0 0-35.65 14.63L165.73 147.93a49.83 49.83 0 0 0-0.1 70.64L208 260.94h-60.63a50 50 0 0 0-49.94 49.94V452.6a50 50 0 0 0 49.94 49.94h59.88l-42.65 42.65a49.83 49.83 0 0 0-0.1 70.63L264.65 716a49.15 49.15 0 0 0 35 14.73h0.35a49.6 49.6 0 0 0 35.33-14.63l42.38-42.38v60.62a50 50 0 0 0 49.94 49.94h141.67a50 50 0 0 0 49.94-49.94v-59.88l42.64 42.64a49.15 49.15 0 0 0 35 14.74 50 50 0 0 0 35.65-14.63L832.72 617a49.83 49.83 0 0 0 0.09-70.62L790.43 504h60.63A50 50 0 0 0 901 454.11v-71.61h-60.31v61.24h-99.07l-6.94 20.47a240.46 240.46 0 0 1-11.89 28.62l-9.5 19.36 69.5 69.5-85.51 85.51-69.87-69.87-19.41 9.5a237.06 237.06 0 0 1-28.62 11.7L559 625.47V724H438v-99.1l-20.5-6.9a240.36 240.36 0 0 1-28.62-11.89l-19.36-9.5L300 666.07l-85.51-85.51 69.88-69.88-9.5-19.36a236.89 236.89 0 0 1-11.7-28.62l-6.94-20.47h-98.49v-121h99.07l6.94-20.47a240.46 240.46 0 0 1 11.89-28.62l9.5-19.36-69.5-69.5 85.51-85.51 69.85 69.9 19.36-9.5A236.94 236.94 0 0 1 419 146.46l20.47-6.94V41h59.93z"  horiz-adv-x="1024" />
      
      <glyph glyph-name="dasuolvetuliebiao" unicode="&#58882;" d="M380.928 828.416q26.624 0 45.568-18.944t18.944-45.568l0-256q0-26.624-18.944-45.568t-45.568-18.944l-256 0q-26.624 0-45.056 18.944t-18.432 45.568l0 256q0 26.624 18.432 45.568t45.056 18.944l256 0zM380.928 315.392q26.624 0 45.568-18.432t18.944-45.056l0-256q0-26.624-18.944-45.568t-45.568-18.944l-256 0q-26.624 0-45.056 18.944t-18.432 45.568l0 256q0 26.624 18.432 45.056t45.056 18.432l256 0zM893.952 828.416q26.624 0 45.056-18.944t18.432-45.568l0-256q0-26.624-18.432-45.568t-45.056-18.944l-256 0q-26.624 0-45.568 18.944t-18.944 45.568l0 256q0 26.624 18.944 45.568t45.568 18.944l256 0zM893.952 315.392q26.624 0 45.056-18.432t18.432-45.056l0-256q0-26.624-18.432-45.568t-45.056-18.944l-256 0q-26.624 0-45.568 18.944t-18.944 45.568l0 256q0 26.624 18.944 45.056t45.568 18.432l256 0z"  horiz-adv-x="1024" />
      
      <glyph glyph-name="liebiao" unicode="&#58884;" d="M187.392 825.344q28.672 0 48.64-19.456t19.968-48.128l0-52.224q0-28.672-19.968-48.64t-48.64-19.968l-54.272 0q-27.648 0-47.616 19.968t-19.968 48.64l0 52.224q0 28.672 19.968 48.128t47.616 19.456l54.272 0zM889.856 825.344q27.648 0 47.616-19.456t19.968-48.128l0-52.224q0-28.672-19.968-48.64t-47.616-19.968l-437.248 0q-28.672 0-48.64 19.968t-19.968 48.64l0 52.224q0 28.672 19.968 48.128t48.64 19.456l437.248 0zM187.392 506.88q28.672 0 48.64-19.968t19.968-48.64l0-52.224q0-27.648-19.968-47.616t-48.64-19.968l-54.272 0q-27.648 0-47.616 19.968t-19.968 47.616l0 52.224q0 28.672 19.968 48.64t47.616 19.968l54.272 0zM889.856 506.88q27.648 0 47.616-19.968t19.968-48.64l0-52.224q0-27.648-19.968-47.616t-47.616-19.968l-437.248 0q-28.672 0-48.64 19.968t-19.968 47.616l0 52.224q0 28.672 19.968 48.64t48.64 19.968l437.248 0zM187.392 187.392q28.672 0 48.64-19.968t19.968-47.616l0-52.224q0-28.672-19.968-48.64t-48.64-19.968l-54.272 0q-27.648 0-47.616 19.968t-19.968 48.64l0 52.224q0 27.648 19.968 47.616t47.616 19.968l54.272 0zM889.856 187.392q27.648 0 47.616-19.968t19.968-47.616l0-52.224q0-28.672-19.968-48.64t-47.616-19.968l-437.248 0q-28.672 0-48.64 19.968t-19.968 48.64l0 52.224q0 27.648 19.968 47.616t48.64 19.968l437.248 0z"  horiz-adv-x="1024" />
      
      <glyph glyph-name="duigou" unicode="&#58890;" d="M60.217477 262.089439c0 0 250.197342-104.557334 374.563838-330.628186 149.378146 279.762705 436.109566 540.713972 521.05012 560.013527 0 115.776863 0 163.394371 0 341.442486-342.237595-226.070852-506.576477-642.342604-506.576477-642.342604l-180.049702 191.614086L60.217477 262.089439z"  horiz-adv-x="1024" />
      
      <glyph glyph-name="fenxiang" unicode="&#59502;" d="M763.84 0c-47.128 0-85.333 38.205-85.333 85.333s38.205 85.333 85.333 85.333c47.128 0 85.333-38.205 85.333-85.333 0-47.128-38.205-85.333-85.333-85.333M329.92 337.152c-14.895-26.231-42.641-43.638-74.453-43.638-47.128 0-85.333 38.205-85.333 85.333 0 16.097 4.457 31.152 12.204 44 14.935 24.769 42.098 41.333 73.13 41.333 47.128 0 85.333-38.205 85.333-85.333 0-15.317-4.035-29.691-11.101-42.117M763.84 768c47.128 0 85.333-38.205 85.333-85.333s-38.205-85.333-85.333-85.333c-47.128 0-85.333 38.205-85.333 85.333 0 47.128 38.205 85.333 85.333 85.333M763.84 213.333c-0.021 0-0.047 0-0.072 0-39.16 0-74.203-17.626-97.628-45.378l-289.885 167.063c4.932 13.101 7.787 28.245 7.787 44.055 0 0.105 0 0.209 0 0.314 0 0.072 0 0.177 0 0.281 0 15.81-2.855 30.953-8.077 44.942l295.544 169.566c23.265-24.363 56.001-39.509 92.275-39.509 0.020 0 0.039 0 0.059 0 70.689 0 127.997 57.308 127.997 128 0 70.692-57.308 128-128 128-70.692 0-128-57.308-128-128 0-18.965 4.224-36.907 11.627-53.099l-292.288-168.747c-23.653 28.833-59.285 47.084-99.18 47.084-70.692 0-128-57.308-128-128 0-0.188 0-0.376 0.001-0.564-0.001-0.123-0.001-0.304-0.001-0.484 0-70.692 57.308-128 128-128 39.895 0 75.526 18.251 99.001 46.86l289.373-166.752c-5.397-13.568-8.529-29.29-8.533-45.743 0-70.582 57.308-127.889 128-127.889 70.692 0 128 57.308 128 128 0 70.692-57.308 128-128 128z"  horiz-adv-x="1024" />
      
      <glyph glyph-name="table" unicode="&#59358;" d="M928 736H96c-17.7 0-32-14.3-32-32v-640c0-17.7 14.3-32 32-32h832c17.7 0 32 14.3 32 32V704c0 17.7-14.3 32-32 32z m-40-208H676V664h212v-136z m0-224H676V464h212v-160zM412 464h200v-160H412V464z m200 64H412V664h200v-136z m-476-64h212v-160H136V464z m0 200h212v-136H136V664z m0-424h212v-136H136V240z m276 0h200v-136H412V240z m476-136H676V240h212v-136z"  horiz-adv-x="1024" />
      
      <glyph glyph-name="video-fill" unicode="&#59493;" d="M912 593.7L784 520V672c0 35.3-28.7 64-64 64H128c-35.3 0-64-28.7-64-64v-576c0-35.3 28.7-64 64-64h592c35.3 0 64 28.7 64 64V248l128-73.7c21.3-12.3 48 3.1 48 27.6V566c0 24.6-26.7 40-48 27.7zM328 544c0-4.4-3.6-8-8-8H208c-4.4 0-8 3.6-8 8v48c0 4.4 3.6 8 8 8h112c4.4 0 8-3.6 8-8v-48z m560-273l-104 59.8V437.1L888 497v-226z"  horiz-adv-x="1024" />
      
      <glyph glyph-name="textarea" unicode="&#58927;" d="M118.784 117.76h778.24V650.24h-778.24v-532.48zM77.824 691.2h860.16v-614.4H77.824V691.2z m778.24-409.6l-122.88-122.88h122.88V281.6z m-661.504 256v-204.8c0-12.288 8.192-20.48 20.48-20.48s20.48 8.192 20.48 20.48V537.6c0 12.288-8.192 20.48-20.48 20.48s-20.48-8.192-20.48-20.48z"  horiz-adv-x="1024" />
      
      <glyph glyph-name="xialakuang" unicode="&#58881;" d="M839.68 450.56H614.4l112.64-122.88zM957.44 701.44H81.92c-10.24 0-20.48-10.24-20.48-25.6V153.6c0-10.24 10.24-20.48 25.6-20.48h875.52c10.24 0 25.6 10.24 25.6 20.48V675.84c-5.12 15.36-15.36 25.6-30.72 25.6z m-51.2-471.04c0-10.24-10.24-15.36-20.48-15.36H158.72c-10.24 0-20.48 5.12-20.48 15.36V604.16c0 10.24 10.24 15.36 20.48 15.36h727.04c10.24 0 20.48-5.12 20.48-15.36V230.4z"  horiz-adv-x="1024" />
      
      <glyph glyph-name="m-lunbotu" unicode="&#59347;" d="M122.368 730.112h778.24c-9.216 0-16.384 7.168-16.384 16.384v-713.728c0 9.216 7.168 16.384 16.384 16.384h-778.24c9.216 0 16.384-7.168 16.384-16.384V745.984c0-8.192-6.656-15.872-16.384-15.872z m-32.768-684.544c0-26.112 20.992-47.104 47.104-47.104h750.08c26.112 0 47.104 20.992 47.104 47.104V733.696c0 26.112-20.992 47.104-47.104 47.104H136.704c-26.112 0-47.104-20.992-47.104-47.104v-688.128zM706.048 176.128h-389.12V603.136h389.12v-427.008z m-330.752 57.856h272.384V545.28H375.296v-311.296zM757.248 518.144h126.976v-316.928h-126.976zM138.752 519.168h126.976v-316.928H138.752z"  horiz-adv-x="1024" />
      
      <glyph glyph-name="pin-outline" unicode="&#58980;" d="M512 810.666667a341.333333 341.333333 0 0 1-341.333333-337.92c0-233.813333 300.8-494.08 313.6-505.173334a42.666667 42.666667 0 0 1 55.466666 0C554.666667-21.333333 853.333333 238.933333 853.333333 472.746667A341.333333 341.333333 0 0 1 512 810.666667z m0-753.066667c-71.253333 67.84-256 256-256 415.146667a256 256 0 0 0 512 0c0-157.866667-184.746667-347.306667-256-415.146667zM512 640a149.333333 149.333333 0 1 1 149.333333-149.333333A149.333333 149.333333 0 0 1 512 640z m0-213.333333a64 64 0 1 0 64 64A64 64 0 0 0 512 426.666667z"  horiz-adv-x="1024" />
      
      <glyph glyph-name="shouji" unicode="&#58880;" d="M820.409449 98.771654q0-25.19685-10.07874-46.866142t-27.716535-38.299213-41.322835-26.204724-50.897638-9.574803l-357.795276 0q-27.212598 0-50.897638 9.574803t-41.322835 26.204724-27.716535 38.299213-10.07874 46.866142l0 675.275591q0 25.19685 10.07874 47.370079t27.716535 38.80315 41.322835 26.204724 50.897638 9.574803l357.795276 0q27.212598 0 50.897638-9.574803t41.322835-26.204724 27.716535-38.80315 10.07874-47.370079l0-675.275591zM738.771654 725.669291l-455.559055 0 0-577.511811 455.559055 0 0 577.511811zM510.992126 119.937008q-21.165354 0-36.787402-15.11811t-15.622047-37.291339q0-21.165354 15.622047-36.787402t36.787402-15.622047q22.173228 0 37.291339 15.622047t15.11811 36.787402q0 22.173228-15.11811 37.291339t-37.291339 15.11811zM591.622047 811.338583q0 8.062992-5.03937 12.598425t-11.086614 4.535433l-128 0q-5.03937 0-10.582677-4.535433t-5.543307-12.598425 5.03937-12.598425 11.086614-4.535433l128 0q6.047244 0 11.086614 4.535433t5.03937 12.598425z"  horiz-adv-x="1024" />
      
      <glyph glyph-name="diqiu" unicode="&#59321;" d="M511.163 833.578c-242.734 0-439.51-196.775-439.51-439.51s196.776-439.51 439.51-439.51 439.51 196.776 439.51 439.51-196.776 439.51-439.51 439.51zM548.7 802.441s27.53 15.968 37.11 6.388c9.58-9.58 43.113 1.596 129.338-49.5 0 0-18.99-20.252-23.143-19.037 2.424-4.403 9.876-17.825 15.159-26.122 6.387-10.03 7.984-10.728 7.984-10.728l-6.388-9.58 6.388-1.596c-6.388 1.596-9.58-17.564-18.825-20.758-9.244-3.194 2.857-20.758-0.336-23.951-3.193-3.194 1.597-31.936 0-48.865-1.596-16.93-7.983-2.231-15.967 0-7.984 2.23-20.758 7.35-21.85 12.14-1.094 4.79-3.698 19.16-0.505 27.144 3.193 7.984-9.58 15.968-15.968 21.823-6.388 5.856-31.935-1.065-36.726 0-4.79 1.066-7.983 14.903-7.983 27.677s22.355-1.597 34.936 0c12.582 1.596 14.564 33.431 14.564 33.431l-0.723 27.062c-5.162 2.064-6.005 4.74 2.32 8.168 0 0-27.146 6.387-33.532-7.984-6.388-14.372-9.58-12.976-11.178-27.246-1.596-14.27-26.613-1.697-32.467 0-5.855 1.698-21.823 20.86-21.823 20.86 4.79 11.177 7.983 19.16 7.983 19.16l-8.368 19.16V802.441zM296.797 653.942c2.708 3.614 20.757 35.13 43.113 25.548 22.355-9.58 36.725 11.177 36.725 11.177s32.823 33.532 34.774 28.742l1.951-4.79c-1.951 4.79 27.146 12.774 30.338-3.194 3.194-15.967 22.356-24.001 22.356-24.001s-11.178-19.112-7.984-33.482c3.193-14.371 14.371-17.564 7.984-30.339-6.388-12.774-19.162-17.564-22.356-23.951-3.193-6.388-29.451 20.757-32.29 30.339-2.839 9.58-16.868 19.16-29.015 15.967-12.146-3.194-44.082-11.177-50.468-7.984-6.387 3.194-42.61 5.986-35.128 15.968zM724.73 184.493c-12.774-33.532-43.113-91.016-59.08-106.983-15.968-15.968-35.13-46.307-49.5-57.484-14.371-11.177-14.371-31.935-31.935-30.339-17.564 1.597-38.323 51.097-33.532 63.871 4.79 12.774-87.822 35.13-87.822 35.13s-39.92 4.79-47.903 81.434c-1.422 13.64-2.334 23.32-2.879 30.043-11.998 5.302-59.06 24.783-88.137 17.86-33.532-7.984-41.516 10.653-70.258 14.907l-49.5 45.77s-81.434 94.21-71.854 110.177c9.58 15.968 9.58 59.08 11.177 68.66 1.597 9.581-12.744 70.26-11.961 78.243 0.784 7.984-11.99 38.323-11.99 38.323s30.339 63.87 35.129 63.87 22.355-54.29 39.92-55.886c17.563-1.597 65.466 1.596 72.652 9.58 7.186 7.984 13.572 17.564 21.556 17.564 7.984 0 7.984 4.79 22.355-1.597 14.371-6.387 30.339-15.967 36.725-25.547 6.388-9.58-4.79-28.742 28.742-28.742s33.532 7.984 38.323-14.371c4.79-22.356 10.467-71.855-3.548-75.049-14.016-3.193-55.532-51.804-52.338-67.418 3.194-15.614 3.194-39.565-3.194-53.936-6.387-14.37-11.177-19.16-35.129-17.564-23.951 1.597-44.2 14.372-50.842-4.79-6.642-19.161-19.348-62.327 2.94-57.969 0 0 35.128 10.692 47.902 0 12.774-10.692 94.21-45.82 94.21-45.82s73.45 79.838 188.418 28.741l19.162-12.774 31.935 6.943s41.515 12.219 55.887 9.025l14.371-3.194v6.388c-0.002-0.002 12.772-33.534-0.002-67.066z m186.822 182.031s-9.58 14.371-9.58 29.487-11.178 13.626-11.178 32.786c0 19.162-14.371 12.774-23.951 25.548s-14.372-4.79-22.355-6.387c-7.984-1.597-6.388-14.372-14.372-29.54-7.984-15.17-28.741-24.75-35.129-21.911-6.387 2.84-30.339 24.305-31.935 29.097-1.597 4.79-33.532 31.935-32.646 38.322 0.887 6.388-8.87 39.92-15.257 55.887-6.388 15.968 0 78.877 0 78.877-9.58 5.424 87.822 45.672 75.048 50.462-12.774 4.79-19.161 57.483-19.161 57.483l46.483-23.951c46.484-23.952 105.21-213.968 105.21-213.968v-54.29l-11.177-47.902z"  horiz-adv-x="1024" />
      
      <glyph glyph-name="diannao" unicode="&#58883;" d="M57.6 806.4h915.2c19.2 0 38.4-19.2 38.4-38.4v-659.2c0-19.2-19.2-38.4-38.4-38.4H550.4V19.2h211.2c12.8 0 25.6-12.8 25.6-25.6s-12.8-25.6-25.6-25.6H262.4c-12.8 0-25.6 12.8-25.6 25.6s12.8 25.6 25.6 25.6h211.2V70.4H57.6c-19.2 0-38.4 19.2-38.4 38.4V768c0 25.6 12.8 38.4 38.4 38.4zM864 256c-19.2 0-38.4-19.2-38.4-38.4s19.2-38.4 38.4-38.4 38.4 19.2 38.4 38.4c0 25.6-19.2 38.4-38.4 38.4z m70.4 473.6H96v-582.4h838.4V729.6z"  horiz-adv-x="1024" />
      
      <glyph glyph-name="bofang" unicode="&#58916;" d="M512 896C230.4 896 0 665.6 0 384s230.4-512 512-512 512 230.4 512 512S793.6 896 512 896z m0-981.333333C253.866667-85.333333 42.666667 125.866667 42.666667 384S253.866667 853.333333 512 853.333333s469.333333-211.2 469.333333-469.333333-211.2-469.333333-469.333333-469.333333zM672 454.4l-170.666667 113.066667c-57.6 38.4-106.666667 12.8-106.666666-57.6v-256c0-70.4 46.933333-96 106.666666-57.6l170.666667 113.066666c57.6 42.666667 57.6 106.666667 0 145.066667z"  horiz-adv-x="1024" />
      
      <glyph glyph-name="baocun" unicode="&#58897;" d="M689.49333333 525.12h-105.81333333V772.05333333h105.81333333v-246.93333333zM971.73333333 630.93333333v-599.78666666c0-58.45333333-47.36-105.81333333-105.81333333-105.81333334H160.21333333c-58.45333333 0-105.81333333 47.36-105.81333333 105.81333334V736.8533333299999c0 58.45333333 47.36 105.81333333 105.81333333 105.81333334h599.78666667c29.22666667 0 46.50666667-21.76 127.46666667-105.6 64.53333333-66.88 84.26666667-76.90666667 84.26666666-106.13333334z m-740.90666666-105.81333333c0-19.41333333 15.78666667-35.30666667 35.30666666-35.30666667h458.66666667c19.41333333 0 35.30666667 15.89333333 35.30666667 35.30666667V772.05333333c0 19.41333333-15.78666667 35.30666667-35.30666667 35.30666667h-458.66666667c-19.41333333 0-35.30666667-15.89333333-35.30666666-35.30666667v-246.93333333z m635.09333333-176.42666667c0 19.41333333-15.78666667 35.30666667-35.30666667 35.30666667H195.52c-19.41333333 0-35.30666667-15.89333333-35.30666667-35.30666667v-352.85333333c0-19.41333333 15.78666667-35.30666667 35.30666667-35.30666667h635.09333333c19.41333333 0 35.30666667 15.89333333 35.30666667 35.30666667V348.69333333z"  horiz-adv-x="1024" />
      
      <glyph glyph-name="htmal5icon12" unicode="&#58930;" d="M811.272038 739.681792l-595.873246 0c-46.818305 0-85.124749-38.306444-85.124749-85.124749l0-535.616884c0-46.818305 38.306444-85.124749 85.124749-85.124749l595.873246 0c46.818305 0 85.124749 38.306444 85.124749 85.124749l0 535.616884C896.396787 701.375348 858.090343 739.681792 811.272038 739.681792zM318.595129 640.038374c42.952254 0 77.771271-34.819017 77.771271-77.771271s-34.819017-77.771271-77.771271-77.771271-77.771271 34.819017-77.771271 77.771271S275.642874 640.038374 318.595129 640.038374zM215.398792 161.502533l148.9678 197.609637 106.405425-127.687124 148.968823 191.530175 191.530175-261.45371L215.398792 161.50151z"  horiz-adv-x="1024" />
      
      <glyph glyph-name="date" unicode="&#58968;" d="M378.237 114.225l52.988 0 0 261.169-42.075 0c-1.575-9.872-4.697-18.197-9.422-24.919-4.697-6.75-10.491-12.094-17.381-16.2-6.806-4.106-14.541-6.975-23.091-8.606-8.578-1.631-17.522-2.306-26.719-2.109l0-39.881 65.672 0 0-169.453zM618.734 168.169c-3.853-4.641-8.55-8.297-14.175-11.137-5.569-2.925-11.841-4.275-18.816-4.275-11.925 0-21.797 3.488-29.447 10.603-7.734 7.088-12.206 16.65-13.472 28.603l-53.044 0c0.253-13.697 3.066-25.734 8.494-36.056 5.231-10.322 12.459-18.956 21.431-25.931 8.972-7.003 19.209-12.122 30.741-15.497 11.587-3.403 23.709-5.062 36.394-5.062 13.162-0.253 25.594 2.025 37.294 6.525 11.728 4.584 21.938 11.109 30.741 19.575 8.887 8.494 15.919 18.45 21.178 30.066 5.147 11.475 7.819 24.047 7.819 37.491 0 12.178-1.772 23.709-5.428 34.481-3.572 10.913-8.831 20.278-15.778 28.294-6.75 7.903-15.159 14.231-25.116 18.956-9.9 4.669-21.347 7.088-34.341 7.088-10.378 0-19.744-1.603-28.013-4.669-8.184-3.066-15.834-8.269-23.063-15.497l-0.703 0.731 10.378 59.288 107.831 0 0 43.65-145.856 0-25.791-144.338 47.756 0c5.288 7.228 10.884 12.544 16.875 15.863 5.962 3.347 13.669 5.034 23.119 5.034 7.256 0 13.556-1.237 19.013-3.769 5.484-2.475 10.153-5.963 14.231-10.434 3.909-4.444 6.919-9.731 8.944-15.638 1.969-6.047 2.925-12.375 2.925-19.069 0-6.412-0.984-12.713-3.122-18.9-2.166-6.019-5.091-11.306-9-15.975zM263.459 622.162l61.791 0c9.281 0 16.931 7.509 16.931 16.847l0 135.928c0 9.253-7.65 16.875-16.931 16.875l-61.791 0c-9.366 0-16.875-7.622-16.875-16.875l0-135.956c0-9.309 7.509-16.819 16.875-16.819zM698.806 622.162l61.734 0c9.45 0 16.931 7.509 16.931 16.847l0 135.928c0 9.253-7.481 16.875-16.931 16.875l-61.734 0c-9.309 0-16.875-7.622-16.875-16.875l0-135.956c0-9.309 7.566-16.819 16.875-16.819zM833.497 726.844l-21.853 0 0-87.862c0-28.125-22.809-51.019-51.075-51.019l-61.734 0c-28.153 0-51.075 22.894-51.075 51.019l0 87.863-271.378 0 0-87.863c0-28.125-22.95-51.019-51.075-51.019l-61.847 0c-28.153 0-51.075 22.894-51.075 51.019l0 87.863-21.881 0c-54.225 0-98.269-44.044-98.269-98.297l0-553.978c0-54.337 44.044-98.381 98.269-98.381l642.994 0c54.337 0 98.269 44.044 98.269 98.381l0 553.978c0 54.253-43.959 98.297-98.269 98.297zM869.609 74.569c0-19.997-16.172-36.197-36.113-36.197l-642.994 0c-19.913 0-36.113 16.2-36.113 36.197l0 371.531 715.219 0 0-371.531z"  horiz-adv-x="1024" />
      
      <glyph glyph-name="anniu" unicode="&#59024;" d="M368 377.6c-3.2 6.4-6.4 9.6-12.8 16-3.2 3.2-9.6 6.4-12.8 9.6 3.2 3.2 6.4 3.2 6.4 6.4 3.2 3.2 3.2 6.4 6.4 9.6 0 3.2 3.2 6.4 3.2 12.8v12.8c0 9.6-3.2 19.2-6.4 28.8s-9.6 16-12.8 22.4c-6.4 6.4-12.8 9.6-19.2 12.8-6.4 3.2-16 3.2-22.4 3.2h-73.6v-252.8h80c9.6 0 19.2 3.2 28.8 6.4 9.6 3.2 16 9.6 22.4 16 6.4 6.4 12.8 16 16 25.6 3.2 9.6 6.4 19.2 6.4 32 0 6.4 0 16-3.2 22.4s-3.2 12.8-6.4 16zM272 467.2h16c6.4 0 12.8-3.2 16-6.4 6.4-3.2 6.4-9.6 6.4-19.2s-3.2-16-6.4-19.2c-3.2-6.4-9.6-6.4-16-6.4h-16v51.2zM326.4 323.2c-3.2-3.2-3.2-6.4-6.4-9.6s-6.4-3.2-9.6-6.4c-3.2 0-6.4-3.2-12.8-3.2h-25.6v64h25.6c9.6 0 16-3.2 22.4-9.6s9.6-12.8 9.6-25.6c0 0-3.2-6.4-3.2-9.6zM748.8 416v-48c-6.4 6.4-9.6 16-16 25.6s-12.8 16-19.2 22.4l-73.6 96h-41.6v-252.8h51.2v160l19.2-28.8c6.4-9.6 12.8-19.2 22.4-28.8l83.2-108.8h25.6v256h-51.2v-92.8zM896 672h-768c-35.2 0-64-28.8-64-64v-448c0-35.2 28.8-64 64-64h768c35.2 0 64 28.8 64 64v448c0 35.2-28.8 64-64 64zM896 192c0-19.2-12.8-32-32-32h-704c-19.2 0-32 12.8-32 32v384c0 19.2 12.8 32 32 32h704c19.2 0 32-12.8 32-32v-384zM393.6 464h64v-204.8h54.4v204.8h64v48h-182.4z"  horiz-adv-x="1024" />
      
      <glyph glyph-name="wenzi" unicode="&#59035;" d="M790.754133 802.133333C867.733333 802.133333 930.133333 739.733333 930.133333 662.754133v-557.508266C930.133333 28.266666999999984 867.733333-34.13333299999999 790.754133-34.13333299999999H233.245867C156.266667-34.13333299999999 93.866667 28.266666999999984 93.866667 105.24586699999998V662.754133C93.866667 739.733333 156.266667 802.133333 233.245867 802.133333h557.508266zM389.768533 120.16639999999995a12.8 12.8 0 0 1-12.8-12.8v-11.246933a12.8 12.8 0 0 1 13.4272-12.7872c31.786667 1.565867 54.3232 2.594133 67.613867 3.0848 22.638933 0.832 41.1776 1.250133 55.624533 1.250133 19.997867 0 57.220267-1.250133 111.6672-3.7504a54795.541333 54795.541333 0 0 1 18.030934-0.725333 12.8 12.8 0 0 1 12.8 12.8v11.374933a12.8 12.8 0 0 1-12.8 12.8h-1.783467c-16.110933 0-28.608 1.527467-37.499733 4.5824-8.887467 3.054933-15.415467 8.055467-19.584 15.0016-3.6096 7.223467-6.2464 18.193067-7.914667 32.917333-1.664 14.72-2.500267 40.413867-2.500267 77.0816v77.917867c0 38.144 0.1408 88.285867 1.92 269.0304a12.8 12.8 0 0 0 12.8 12.637867h60.6976c42.496 0 70.971733-5.905067 85.418667-17.706667 8.6528-7.0784 17.2672-26.244267 25.847467-57.5104a12.8 12.8 0 0 1 14.3104-9.258667l13.824 2.1504a12.8 12.8 0 0 1 10.7392 14.203734c-3.349333 27.323733-5.546667 47.735467-6.600534 61.243733a867.592533 867.592533 0 0 0-2.705066 67.293867 10.082133 10.082133 0 0 1-12.322134 9.8304c-11.434667-2.606933-22.1184-4.288-32.055466-5.038934-20.138667-1.527467-55.765333-2.2912-106.875734-2.2912H389.051733c-45.559467 0-77.917867 0.763733-97.083733 2.2912-9.028267 0.7168-19.0976 2.210133-30.208 4.48a12.8 12.8 0 0 1-15.330133-11.682133c-1.719467-25.5232-3.554133-45.346133-5.504-59.464533-2.039467-14.7584-6.1056-36.928-12.202667-66.5088a12.8 12.8 0 0 1 9.877333-15.104l15.240534-3.242667a12.8 12.8 0 0 1 14.856533 8.631467c10.282667 32.221867 20.258133 52.0064 29.934933 59.349333 16.110933 12.219733 45.973333 18.3296 89.582934 18.3296h58.8672a12.8 12.8 0 0 0 12.8-12.8v-225.531733c0-81.109333-0.554667-136.6656-1.664-166.664534-1.109333-30.0032-3.0592-48.891733-5.8368-56.669866-4.164267-10.274133-10.555733-17.429333-19.165867-21.457067s-22.2208-6.0416-40.832-6.0416h-2.615467z"  horiz-adv-x="1024" />
      
      <glyph glyph-name="mokuai" unicode="&#58939;" d="M512 346.24a34.56 34.56 0 0 0-16 3.84L295.04 466.56a30.72 30.72 0 0 0-16 27.52V726.4a30.72 30.72 0 0 0 16 27.52L496 869.76a32 32 0 0 0 32 0l200.96-115.84a30.72 30.72 0 0 0 16-27.52v-232.32a30.72 30.72 0 0 0-16-27.52L528 350.08a34.56 34.56 0 0 0-16-3.84zM343.04 512L512 414.72 680.96 512V707.84L512 805.76 343.04 707.84zM256-96a27.52 27.52 0 0 0-16 4.48l-204.8 115.84a33.28 33.28 0 0 0-16 28.16V284.16a33.28 33.28 0 0 0 16 28.16L236.8 428.16a32 32 0 0 0 32 0l200.96-115.84a33.28 33.28 0 0 0 16-28.16v-231.68a33.28 33.28 0 0 0-16-28.16L268.8-91.52a30.08 30.08 0 0 0-12.8-4.48z m-172.8 166.4L256-26.88l165.76 97.28V265.6L256 363.52 83.2 265.6zM771.2-96a30.08 30.08 0 0 0-16 4.48l-200.96 115.84a33.28 33.28 0 0 0-16 28.16V284.16a33.28 33.28 0 0 0 16 28.16l200.96 115.84a32 32 0 0 0 32 0l201.6-115.84a33.28 33.28 0 0 0 16-28.16v-231.68a33.28 33.28 0 0 0-16-28.16l-201.6-115.84a27.52 27.52 0 0 0-16-4.48z m-168.96 166.4l168.96-97.28 169.6 97.28V265.6l-169.6 97.92-168.96-97.92z"  horiz-adv-x="1024" />
      
      <glyph glyph-name="duoxuankuang" unicode="&#58908;" d="M340.267533 827.59815m49.970214 0l677.328501 0q49.970214 0 49.970214-49.970214l0 0.136531q0-49.970214-49.970214-49.970214l-677.328501 0q-49.970214 0-49.970214 49.970214l0-0.136531q0 49.970214 49.970214 49.970214ZM340.267533 421.146437m49.970214 0l677.328501 0q49.970214 0 49.970214-49.970214l0 0.136531q0-49.970214-49.970214-49.970214l-677.328501 0q-49.970214 0-49.970214 49.970214l0-0.136531q0 49.970214 49.970214 49.970214ZM340.267533 14.558194m49.970214 0l677.328501 0q49.970214 0 49.970214-49.970214l0 0.136531q0-49.970214-49.970214-49.970214l-677.328501 0q-49.970214 0-49.970214 49.970214l0-0.136531q0 49.970214 49.970214 49.970214ZM301.21977 885.35061A36.044089 36.044089 0 0 1 275.688541 896a35.907558 35.907558 0 0 1-25.53123-10.64939L123.047286 757.967524 61.745029 819.815903a36.044089 36.044089 0 0 1-25.531229 10.64939A36.180619 36.180619 0 0 1 10.68257 768.753444l87.106548-87.516139A35.771027 35.771027 0 0 1 123.047286 670.724445a35.224905 35.224905 0 0 1 25.394699 10.64939L301.21977 834.424682a36.31715 36.31715 0 0 1 0 50.925928zM301.21977 472.755019a35.907558 35.907558 0 0 1-25.531229 10.512859 35.771027 35.771027 0 0 1-25.53123-10.512859L123.047286 345.508463l-61.302257 61.84838A36.044089 36.044089 0 0 1 36.2138 418.142763a36.180619 36.180619 0 0 1-25.53123-61.848379l87.106548-87.37961a35.771027 35.771027 0 0 1 50.925928 0l152.504724 153.050847a36.453681 36.453681 0 0 1 0 50.789398zM301.21977 86.646371a36.044089 36.044089 0 0 1-25.531229 10.64939 35.907558 35.907558 0 0 1-25.53123-10.64939L123.047286-40.736715l-61.302257 61.848379a35.907558 35.907558 0 0 1-25.531229 10.51286 35.771027 35.771027 0 0 1-25.53123-10.51286 36.180619 36.180619 0 0 1 0-51.062459l87.106548-87.516139a36.044089 36.044089 0 0 1 50.925928 0L301.21977 35.856973a36.453681 36.453681 0 0 1 0 50.789398z"  horiz-adv-x="1117" />
      
      <glyph glyph-name="keshihuapingtaiicon_shurukuang" unicode="&#59120;" d="M938.666667 682.666667H85.333333c-23.466667 0-42.666667-19.2-42.666666-42.666667v-512c0-23.466667 19.2-42.666667 42.666666-42.666667h234.666667c23.466667 0 42.666667 19.2 42.666667 42.666667s-19.2 42.666667-42.666667 42.666667H128V597.333333h768v-192c0-23.466667 19.2-42.666667 42.666667-42.666666s42.666667 19.2 42.666666 42.666666V640c0 23.466667-19.2 42.666667-42.666666 42.666667zM322.133333 490.666667c12.8 0 21.333333 8.533333 21.333334 21.333333s-8.533333 21.333333-21.333334 21.333333h-85.333333c-12.8 0-21.333333-8.533333-21.333333-21.333333s8.533333-21.333333 21.333333-21.333333h21.333333v-213.333334h-21.333333c-12.8 0-21.333333-8.533333-21.333333-21.333333s8.533333-21.333333 21.333333-21.333333h85.333333c12.8 0 21.333333 8.533333 21.333334 21.333333s-8.533333 21.333333-21.333334 21.333333h-21.333333V490.666667h21.333333zM915.2 224c10.666667 0 23.466667-4.266667 32-12.8 8.533333-8.533333 21.333333-6.4 29.866667 2.133333 8.533333 8.533333 6.4 21.333333-2.133334 29.866667-17.066667 14.933333-38.4 23.466667-59.733333 23.466667-49.066667 0-89.6-40.533333-89.6-89.6 0-49.066667 40.533333-89.6 89.6-89.6 21.333333 0 42.666667 8.533333 59.733333 23.466666 8.533333 8.533333 10.666667 21.333333 2.133334 29.866667-8.533333 8.533333-21.333333 10.666667-29.866667 2.133333-8.533333-8.533333-19.2-12.8-32-12.8-25.6 0-46.933333 21.333333-46.933333 46.933334s19.2 46.933333 46.933333 46.933333zM718.933333 249.6c-14.933333 0-27.733333-4.266667-38.4-10.666667v89.6c0 12.8-8.533333 21.333333-21.333333 21.333334s-21.333333-8.533333-21.333333-21.333334V106.666667c0-12.8 8.533333-21.333333 21.333333-21.333334 8.533333 0 14.933333 4.266667 19.2 12.8 12.8-6.4 25.6-12.8 42.666667-12.8 44.8 0 81.066667 36.266667 81.066666 81.066667s-38.4 83.2-83.2 83.2z m0-121.6c-21.333333 0-38.4 17.066667-38.4 38.4s17.066667 38.4 38.4 38.4 38.4-17.066667 38.4-38.4-17.066667-38.4-38.4-38.4zM580.266667 211.2c2.133333 8.533333 4.266667 17.066667 6.4 27.733333 4.266667 10.666667-2.133333 23.466667-14.933334 27.733334-10.666667 4.266667-23.466667-2.133333-27.733333-12.8-2.133333-4.266667-2.133333-10.666667-4.266667-17.066667-12.8 10.666667-29.866667 14.933333-46.933333 14.933333-44.8 0-81.066667-36.266667-81.066667-81.066666s36.266667-85.333333 81.066667-85.333334c23.466667 0 42.666667 8.533333 57.6 23.466667 4.266667-8.533333 10.666667-12.8 19.2-12.8 2.133333 0 6.4 0 8.533333 2.133333 10.666667 4.266667 14.933333 17.066667 10.666667 27.733334-8.533333 25.6-12.8 55.466667-8.533333 85.333333zM492.8 128c-21.333333 0-38.4 17.066667-38.4 38.4s17.066667 38.4 38.4 38.4 38.4-17.066667 38.4-38.4-17.066667-38.4-38.4-38.4z"  horiz-adv-x="1024" />
      
      <glyph glyph-name="radioBoxList" unicode="&#58931;" d="M442.05 600.11c0-102.03-82.71-184.74-184.74-184.74S72.57 498.08 72.57 600.11s82.71 184.74 184.74 184.74 184.74-82.71 184.74-184.74zM257.31 710.96c-61.22 0-110.85-49.63-110.85-110.85s49.63-110.85 110.85-110.85 110.85 49.63 110.85 110.85-49.63 110.85-110.85 110.85zM922.38 618.5899999999999H515.95c-20.41 0-36.95 16.54-36.95 36.95 0 20.41 16.54 36.95 36.95 36.95h406.43c20.41 0 36.95-16.54 36.95-36.95 0-20.41-16.54-36.95-36.95-36.95zM739.76 507.74H513.84c-19.24 0-34.84 15.6-34.84 34.84v4.23c0 19.24 15.6 34.84 34.84 34.84h225.92c19.24 0 34.84-15.6 34.84-34.84v-4.23c-0.01-19.24-15.61-34.84-34.84-34.84zM432.82 179.83000000000004c0-102.03-82.71-184.74-184.74-184.74S63.33 77.79999999999995 63.33 179.83000000000004s82.71 184.74 184.74 184.74 184.75-82.71 184.75-184.74zM248.08 290.66999999999996c-61.22 0-110.85-49.63-110.85-110.85s49.63-110.85 110.85-110.85 110.85 49.63 110.85 110.85-49.64 110.85-110.85 110.85zM248.08 179.83000000000004m-55.42 0a55.42 55.42 0 1 1 110.84 0 55.42 55.42 0 1 1-110.84 0ZM922.38 198.29999999999995H515.95c-20.41 0-36.95 16.54-36.95 36.95 0 20.41 16.54 36.95 36.95 36.95h406.43c20.41 0 36.95-16.54 36.95-36.95 0-20.41-16.54-36.95-36.95-36.95zM739.76 87.45000000000005H513.84c-19.24 0-34.84 15.6-34.84 34.84v4.23c0 19.24 15.6 34.84 34.84 34.84h225.92c19.24 0 34.84-15.6 34.84-34.84v-4.23c-0.01-19.24-15.61-34.84-34.84-34.84z"  horiz-adv-x="1024" />
      
      <glyph glyph-name="duoxuankuang1" unicode="&#59142;" d="M787.692308 344.615385a78.769231 78.769231 0 0 0 78.76923-78.769231v-157.538462a78.769231 78.769231 0 0 0-78.76923-78.76923h-157.538462a78.769231 78.769231 0 0 0-78.769231 78.76923v157.538462a78.769231 78.769231 0 0 0 78.769231 78.769231h157.538462z m-304.836923-2.875077a19.692308 19.692308 0 0 0 8.152615-23.867077l-1.575385-3.190154-168.054153-275.692308a19.692308 19.692308 0 0 0-22.488616-8.625231l-3.150769 1.260308-147.022769 73.491692a19.692308 19.692308 0 0 0 14.336 36.548924l3.308307-1.299693 130.796308-65.417846 158.641231 260.214154a19.692308 19.692308 0 0 0 27.057231 6.577231zM787.692308 305.230769h-157.538462a39.384615 39.384615 0 0 1-39.108923-34.776615L590.769231 265.846154v-157.538462a39.384615 39.384615 0 0 1 34.776615-39.108923L630.153846 68.923077h157.538462a39.384615 39.384615 0 0 1 39.108923 34.776615L827.076923 108.307692v157.538462a39.384615 39.384615 0 0 1-34.776615 39.108923L787.692308 305.230769z m0 433.230769a78.769231 78.769231 0 0 0 78.76923-78.76923v-157.538462a78.769231 78.769231 0 0 0-78.76923-78.769231h-157.538462a78.769231 78.769231 0 0 0-78.769231 78.769231V659.692308a78.769231 78.769231 0 0 0 78.769231 78.76923h157.538462z m-304.836923-2.875076a19.692308 19.692308 0 0 0 8.152615-23.867077l-1.575385-3.190154-168.054153-275.692308a19.692308 19.692308 0 0 0-22.488616-8.625231l-3.150769 1.260308-147.022769 73.491692a19.692308 19.692308 0 0 0 14.336 36.548923l3.308307-1.299692 130.796308-65.417846 158.641231 260.214154a19.692308 19.692308 0 0 0 27.057231 6.577231zM787.692308 699.076923h-157.538462a39.384615 39.384615 0 0 1-39.108923-34.776615L590.769231 659.692308v-157.538462a39.384615 39.384615 0 0 1 34.776615-39.108923L630.153846 462.769231h157.538462a39.384615 39.384615 0 0 1 39.108923 34.776615L827.076923 502.153846V659.692308a39.384615 39.384615 0 0 1-34.776615 39.108923L787.692308 699.076923z"  horiz-adv-x="1024" />
      
    </font>
</defs>
</svg>
